<svg width="1121" height="365" viewBox="0 0 1121 365" fill="none" xmlns="http://www.w3.org/2000/svg">
<line x1="561.5" x2="561.5" y2="325" stroke="black"/>
<line x1="696.5" x2="696.5" y2="325" stroke="black"/>
<line x1="841.5" x2="841.5" y2="325" stroke="black"/>
<line x1="981.5" x2="981.5" y2="325" stroke="black"/>
<line x1="281.5" x2="281.5" y2="325" stroke="black"/>
<line x1="421.5" x2="421.5" y2="325" stroke="black"/>
<line x1="141.5" x2="141.5" y2="325" stroke="black"/>
<path d="M537.992 335.977V352.031C537.992 352.359 538.023 352.625 538.086 352.828C538.148 353.016 538.273 353.172 538.461 353.297C538.648 353.406 538.906 353.484 539.234 353.531C539.578 353.578 540.016 353.609 540.547 353.625V354H533.164V353.625C533.68 353.609 534.102 353.562 534.43 353.484C534.758 353.406 535.016 353.289 535.203 353.133C535.391 352.977 535.516 352.773 535.578 352.523C535.656 352.258 535.695 351.922 535.695 351.516V339.422C535.695 338.562 535.43 338.133 534.898 338.133C534.617 338.133 534.211 338.234 533.68 338.438L532.953 338.742V338.344L537.758 335.93L537.992 335.977ZM554.609 354H544.18V353.672L548.938 348.633C550.062 347.43 550.922 346.234 551.516 345.047C552.125 343.859 552.43 342.742 552.43 341.695C552.43 340.555 552.086 339.641 551.398 338.953C550.727 338.25 549.805 337.898 548.633 337.898C548.164 337.898 547.75 337.961 547.391 338.086C547.031 338.195 546.703 338.391 546.406 338.672C546.109 338.938 545.828 339.289 545.562 339.727C545.297 340.164 545.031 340.711 544.766 341.367L544.203 341.25C544.312 340.781 544.422 340.367 544.531 340.008C544.656 339.648 544.781 339.328 544.906 339.047C545.047 338.766 545.195 338.508 545.352 338.273C545.508 338.039 545.695 337.805 545.914 337.57C546.414 337.039 546.992 336.633 547.648 336.352C548.32 336.07 549.023 335.93 549.758 335.93C550.461 335.93 551.109 336.055 551.703 336.305C552.312 336.539 552.836 336.867 553.273 337.289C553.727 337.711 554.078 338.211 554.328 338.789C554.594 339.352 554.727 339.961 554.727 340.617C554.727 341.695 554.445 342.758 553.883 343.805C553.336 344.852 552.477 346.008 551.305 347.273L546.805 351.961H553.18C553.477 351.961 553.734 351.945 553.953 351.914C554.172 351.867 554.367 351.781 554.539 351.656C554.727 351.531 554.906 351.352 555.078 351.117C555.266 350.883 555.484 350.57 555.734 350.18L556.086 350.344L554.609 354ZM560.422 341.719C560.812 341.719 561.156 341.875 561.453 342.188C561.75 342.484 561.898 342.836 561.898 343.242C561.898 343.633 561.75 343.977 561.453 344.273C561.156 344.555 560.805 344.695 560.398 344.695C559.992 344.695 559.641 344.555 559.344 344.273C559.062 343.977 558.922 343.625 558.922 343.219C558.922 342.812 559.07 342.461 559.367 342.164C559.664 341.867 560.016 341.719 560.422 341.719ZM560.422 351.352C560.812 351.352 561.156 351.5 561.453 351.797C561.75 352.094 561.898 352.445 561.898 352.852C561.898 353.242 561.75 353.586 561.453 353.883C561.156 354.164 560.805 354.305 560.398 354.305C559.992 354.305 559.641 354.164 559.344 353.883C559.062 353.586 558.922 353.234 558.922 352.828C558.922 352.406 559.07 352.055 559.367 351.773C559.664 351.492 560.016 351.352 560.422 351.352ZM571.016 335.93C571.875 335.93 572.664 336.156 573.383 336.609C574.117 337.047 574.75 337.672 575.281 338.484C575.812 339.297 576.219 340.273 576.5 341.414C576.797 342.539 576.945 343.789 576.945 345.164C576.945 346.008 576.883 346.828 576.758 347.625C576.633 348.422 576.453 349.164 576.219 349.852C575.984 350.539 575.695 351.164 575.352 351.727C575.023 352.289 574.656 352.75 574.25 353.109C573.312 353.953 572.195 354.375 570.898 354.375C570.07 354.375 569.312 354.211 568.625 353.883C567.953 353.539 567.367 353.047 566.867 352.406C566.57 352.016 566.297 351.547 566.047 351C565.797 350.438 565.578 349.836 565.391 349.195C565.219 348.539 565.078 347.859 564.969 347.156C564.875 346.438 564.828 345.727 564.828 345.023C564.828 344.211 564.891 343.414 565.016 342.633C565.156 341.836 565.344 341.094 565.578 340.406C565.828 339.719 566.125 339.102 566.469 338.555C566.812 337.992 567.188 337.531 567.594 337.172C568.078 336.734 568.594 336.422 569.141 336.234C569.688 336.031 570.312 335.93 571.016 335.93ZM570.852 336.609C569.727 336.609 568.875 337.344 568.297 338.812C567.719 340.281 567.43 342.414 567.43 345.211C567.43 350.852 568.586 353.672 570.898 353.672C572.039 353.672 572.898 352.977 573.477 351.586C574.07 350.18 574.367 348.094 574.367 345.328C574.367 342.422 574.07 340.242 573.477 338.789C572.898 337.336 572.023 336.609 570.852 336.609ZM584.398 335.93C585.258 335.93 586.047 336.156 586.766 336.609C587.5 337.047 588.133 337.672 588.664 338.484C589.195 339.297 589.602 340.273 589.883 341.414C590.18 342.539 590.328 343.789 590.328 345.164C590.328 346.008 590.266 346.828 590.141 347.625C590.016 348.422 589.836 349.164 589.602 349.852C589.367 350.539 589.078 351.164 588.734 351.727C588.406 352.289 588.039 352.75 587.633 353.109C586.695 353.953 585.578 354.375 584.281 354.375C583.453 354.375 582.695 354.211 582.008 353.883C581.336 353.539 580.75 353.047 580.25 352.406C579.953 352.016 579.68 351.547 579.43 351C579.18 350.438 578.961 349.836 578.773 349.195C578.602 348.539 578.461 347.859 578.352 347.156C578.258 346.438 578.211 345.727 578.211 345.023C578.211 344.211 578.273 343.414 578.398 342.633C578.539 341.836 578.727 341.094 578.961 340.406C579.211 339.719 579.508 339.102 579.852 338.555C580.195 337.992 580.57 337.531 580.977 337.172C581.461 336.734 581.977 336.422 582.523 336.234C583.07 336.031 583.695 335.93 584.398 335.93ZM584.234 336.609C583.109 336.609 582.258 337.344 581.68 338.812C581.102 340.281 580.812 342.414 580.812 345.211C580.812 350.852 581.969 353.672 584.281 353.672C585.422 353.672 586.281 352.977 586.859 351.586C587.453 350.18 587.75 348.094 587.75 345.328C587.75 342.422 587.453 340.242 586.859 338.789C586.281 337.336 585.406 336.609 584.234 336.609Z" fill="black"/>
<path d="M818.992 335.977V352.031C818.992 352.359 819.023 352.625 819.086 352.828C819.148 353.016 819.273 353.172 819.461 353.297C819.648 353.406 819.906 353.484 820.234 353.531C820.578 353.578 821.016 353.609 821.547 353.625V354H814.164V353.625C814.68 353.609 815.102 353.562 815.43 353.484C815.758 353.406 816.016 353.289 816.203 353.133C816.391 352.977 816.516 352.773 816.578 352.523C816.656 352.258 816.695 351.922 816.695 351.516V339.422C816.695 338.562 816.43 338.133 815.898 338.133C815.617 338.133 815.211 338.234 814.68 338.438L813.953 338.742V338.344L818.758 335.93L818.992 335.977ZM832.141 344.086C832.953 344.695 833.625 345.242 834.156 345.727C834.688 346.211 835.109 346.672 835.422 347.109C835.734 347.547 835.953 347.984 836.078 348.422C836.219 348.859 836.289 349.344 836.289 349.875C836.289 350.562 836.164 351.188 835.914 351.75C835.664 352.297 835.312 352.766 834.859 353.156C834.406 353.547 833.852 353.844 833.195 354.047C832.539 354.266 831.812 354.375 831.016 354.375C830.266 354.375 829.57 354.266 828.93 354.047C828.305 353.844 827.766 353.547 827.312 353.156C826.859 352.766 826.508 352.305 826.258 351.773C826.008 351.242 825.883 350.648 825.883 349.992C825.883 349.523 825.922 349.117 826 348.773C826.094 348.414 826.266 348.062 826.516 347.719C826.781 347.359 827.133 346.977 827.57 346.57C828.023 346.164 828.617 345.68 829.352 345.117C828.648 344.508 828.078 343.984 827.641 343.547C827.219 343.109 826.883 342.711 826.633 342.352C826.398 341.992 826.242 341.648 826.164 341.32C826.086 340.977 826.047 340.586 826.047 340.148C826.047 339.539 826.172 338.977 826.422 338.461C826.688 337.945 827.039 337.5 827.477 337.125C827.93 336.75 828.461 336.461 829.07 336.258C829.695 336.039 830.375 335.93 831.109 335.93C831.781 335.93 832.398 336.023 832.961 336.211C833.539 336.398 834.031 336.664 834.438 337.008C834.844 337.336 835.156 337.734 835.375 338.203C835.609 338.656 835.727 339.156 835.727 339.703C835.727 340.156 835.664 340.578 835.539 340.969C835.414 341.344 835.211 341.703 834.93 342.047C834.648 342.391 834.273 342.727 833.805 343.055C833.352 343.383 832.797 343.727 832.141 344.086ZM830.055 345.68C829.648 345.992 829.305 346.305 829.023 346.617C828.758 346.914 828.539 347.227 828.367 347.555C828.211 347.867 828.094 348.211 828.016 348.586C827.938 348.945 827.898 349.344 827.898 349.781C827.898 350.938 828.211 351.867 828.836 352.57C829.461 353.273 830.281 353.625 831.297 353.625C832.188 353.625 832.898 353.359 833.43 352.828C833.977 352.281 834.25 351.57 834.25 350.695C834.25 350.32 834.203 349.977 834.109 349.664C834.031 349.352 833.891 349.047 833.688 348.75C833.484 348.453 833.211 348.148 832.867 347.836C832.539 347.523 832.133 347.188 831.648 346.828L830.055 345.68ZM831.344 343.594C831.797 343.297 832.18 343.008 832.492 342.727C832.82 342.43 833.078 342.125 833.266 341.812C833.469 341.5 833.617 341.172 833.711 340.828C833.805 340.469 833.852 340.086 833.852 339.68C833.852 338.758 833.586 338.023 833.055 337.477C832.523 336.93 831.805 336.656 830.898 336.656C830.055 336.656 829.359 336.906 828.812 337.406C828.281 337.891 828.016 338.531 828.016 339.328C828.016 340.078 828.273 340.781 828.789 341.438C829.32 342.094 830.172 342.812 831.344 343.594ZM841.422 341.719C841.812 341.719 842.156 341.875 842.453 342.188C842.75 342.484 842.898 342.836 842.898 343.242C842.898 343.633 842.75 343.977 842.453 344.273C842.156 344.555 841.805 344.695 841.398 344.695C840.992 344.695 840.641 344.555 840.344 344.273C840.062 343.977 839.922 343.625 839.922 343.219C839.922 342.812 840.07 342.461 840.367 342.164C840.664 341.867 841.016 341.719 841.422 341.719ZM841.422 351.352C841.812 351.352 842.156 351.5 842.453 351.797C842.75 352.094 842.898 352.445 842.898 352.852C842.898 353.242 842.75 353.586 842.453 353.883C842.156 354.164 841.805 354.305 841.398 354.305C840.992 354.305 840.641 354.164 840.344 353.883C840.062 353.586 839.922 353.234 839.922 352.828C839.922 352.406 840.07 352.055 840.367 351.773C840.664 351.492 841.016 351.352 841.422 351.352ZM852.016 335.93C852.875 335.93 853.664 336.156 854.383 336.609C855.117 337.047 855.75 337.672 856.281 338.484C856.812 339.297 857.219 340.273 857.5 341.414C857.797 342.539 857.945 343.789 857.945 345.164C857.945 346.008 857.883 346.828 857.758 347.625C857.633 348.422 857.453 349.164 857.219 349.852C856.984 350.539 856.695 351.164 856.352 351.727C856.023 352.289 855.656 352.75 855.25 353.109C854.312 353.953 853.195 354.375 851.898 354.375C851.07 354.375 850.312 354.211 849.625 353.883C848.953 353.539 848.367 353.047 847.867 352.406C847.57 352.016 847.297 351.547 847.047 351C846.797 350.438 846.578 349.836 846.391 349.195C846.219 348.539 846.078 347.859 845.969 347.156C845.875 346.438 845.828 345.727 845.828 345.023C845.828 344.211 845.891 343.414 846.016 342.633C846.156 341.836 846.344 341.094 846.578 340.406C846.828 339.719 847.125 339.102 847.469 338.555C847.812 337.992 848.188 337.531 848.594 337.172C849.078 336.734 849.594 336.422 850.141 336.234C850.688 336.031 851.312 335.93 852.016 335.93ZM851.852 336.609C850.727 336.609 849.875 337.344 849.297 338.812C848.719 340.281 848.43 342.414 848.43 345.211C848.43 350.852 849.586 353.672 851.898 353.672C853.039 353.672 853.898 352.977 854.477 351.586C855.07 350.18 855.367 348.094 855.367 345.328C855.367 342.422 855.07 340.242 854.477 338.789C853.898 337.336 853.023 336.609 851.852 336.609ZM865.398 335.93C866.258 335.93 867.047 336.156 867.766 336.609C868.5 337.047 869.133 337.672 869.664 338.484C870.195 339.297 870.602 340.273 870.883 341.414C871.18 342.539 871.328 343.789 871.328 345.164C871.328 346.008 871.266 346.828 871.141 347.625C871.016 348.422 870.836 349.164 870.602 349.852C870.367 350.539 870.078 351.164 869.734 351.727C869.406 352.289 869.039 352.75 868.633 353.109C867.695 353.953 866.578 354.375 865.281 354.375C864.453 354.375 863.695 354.211 863.008 353.883C862.336 353.539 861.75 353.047 861.25 352.406C860.953 352.016 860.68 351.547 860.43 351C860.18 350.438 859.961 349.836 859.773 349.195C859.602 348.539 859.461 347.859 859.352 347.156C859.258 346.438 859.211 345.727 859.211 345.023C859.211 344.211 859.273 343.414 859.398 342.633C859.539 341.836 859.727 341.094 859.961 340.406C860.211 339.719 860.508 339.102 860.852 338.555C861.195 337.992 861.57 337.531 861.977 337.172C862.461 336.734 862.977 336.422 863.523 336.234C864.07 336.031 864.695 335.93 865.398 335.93ZM865.234 336.609C864.109 336.609 863.258 337.344 862.68 338.812C862.102 340.281 861.812 342.414 861.812 345.211C861.812 350.852 862.969 353.672 865.281 353.672C866.422 353.672 867.281 352.977 867.859 351.586C868.453 350.18 868.75 348.094 868.75 345.328C868.75 342.422 868.453 340.242 867.859 338.789C867.281 337.336 866.406 336.609 865.234 336.609Z" fill="black"/>
<path d="M269 336.141C267.938 336.312 266.961 336.617 266.07 337.055C265.18 337.492 264.391 338.039 263.703 338.695C263.031 339.352 262.469 340.109 262.016 340.969C261.562 341.812 261.242 342.742 261.055 343.758C261.477 343.508 261.836 343.305 262.133 343.148C262.43 342.992 262.695 342.867 262.93 342.773C263.18 342.68 263.422 342.617 263.656 342.586C263.891 342.555 264.156 342.539 264.453 342.539C265.234 342.539 265.938 342.672 266.562 342.938C267.188 343.188 267.719 343.562 268.156 344.062C268.594 344.547 268.93 345.141 269.164 345.844C269.398 346.531 269.516 347.305 269.516 348.164C269.516 349.086 269.375 349.93 269.094 350.695C268.828 351.445 268.445 352.094 267.945 352.641C267.461 353.188 266.867 353.617 266.164 353.93C265.477 354.227 264.719 354.375 263.891 354.375C263.016 354.375 262.211 354.211 261.477 353.883C260.758 353.539 260.148 353.047 259.648 352.406C259.102 351.734 258.672 350.875 258.359 349.828C258.062 348.766 257.914 347.672 257.914 346.547C257.914 344.703 258.305 343.031 259.086 341.531C259.883 340.016 261.039 338.734 262.555 337.688C263.023 337.375 263.477 337.109 263.914 336.891C264.367 336.672 264.836 336.484 265.32 336.328C265.82 336.172 266.359 336.047 266.938 335.953C267.516 335.859 268.18 335.773 268.93 335.695L269 336.141ZM263.375 343.781C262.953 343.781 262.539 343.844 262.133 343.969C261.727 344.078 261.391 344.242 261.125 344.461C260.641 344.836 260.398 345.641 260.398 346.875C260.398 349.016 260.727 350.68 261.383 351.867C262.055 353.039 262.992 353.625 264.195 353.625C265.133 353.625 265.852 353.234 266.352 352.453C266.852 351.672 267.102 350.547 267.102 349.078C267.102 347.375 266.781 346.07 266.141 345.164C265.516 344.242 264.594 343.781 263.375 343.781ZM274.039 341.719C274.43 341.719 274.773 341.875 275.07 342.188C275.367 342.484 275.516 342.836 275.516 343.242C275.516 343.633 275.367 343.977 275.07 344.273C274.773 344.555 274.422 344.695 274.016 344.695C273.609 344.695 273.258 344.555 272.961 344.273C272.68 343.977 272.539 343.625 272.539 343.219C272.539 342.812 272.688 342.461 272.984 342.164C273.281 341.867 273.633 341.719 274.039 341.719ZM274.039 351.352C274.43 351.352 274.773 351.5 275.07 351.797C275.367 352.094 275.516 352.445 275.516 352.852C275.516 353.242 275.367 353.586 275.07 353.883C274.773 354.164 274.422 354.305 274.016 354.305C273.609 354.305 273.258 354.164 272.961 353.883C272.68 353.586 272.539 353.234 272.539 352.828C272.539 352.406 272.688 352.055 272.984 351.773C273.281 351.492 273.633 351.352 274.039 351.352ZM284.633 335.93C285.492 335.93 286.281 336.156 287 336.609C287.734 337.047 288.367 337.672 288.898 338.484C289.43 339.297 289.836 340.273 290.117 341.414C290.414 342.539 290.562 343.789 290.562 345.164C290.562 346.008 290.5 346.828 290.375 347.625C290.25 348.422 290.07 349.164 289.836 349.852C289.602 350.539 289.312 351.164 288.969 351.727C288.641 352.289 288.273 352.75 287.867 353.109C286.93 353.953 285.812 354.375 284.516 354.375C283.688 354.375 282.93 354.211 282.242 353.883C281.57 353.539 280.984 353.047 280.484 352.406C280.188 352.016 279.914 351.547 279.664 351C279.414 350.438 279.195 349.836 279.008 349.195C278.836 348.539 278.695 347.859 278.586 347.156C278.492 346.438 278.445 345.727 278.445 345.023C278.445 344.211 278.508 343.414 278.633 342.633C278.773 341.836 278.961 341.094 279.195 340.406C279.445 339.719 279.742 339.102 280.086 338.555C280.43 337.992 280.805 337.531 281.211 337.172C281.695 336.734 282.211 336.422 282.758 336.234C283.305 336.031 283.93 335.93 284.633 335.93ZM284.469 336.609C283.344 336.609 282.492 337.344 281.914 338.812C281.336 340.281 281.047 342.414 281.047 345.211C281.047 350.852 282.203 353.672 284.516 353.672C285.656 353.672 286.516 352.977 287.094 351.586C287.688 350.18 287.984 348.094 287.984 345.328C287.984 342.422 287.688 340.242 287.094 338.789C286.516 337.336 285.641 336.609 284.469 336.609ZM298.016 335.93C298.875 335.93 299.664 336.156 300.383 336.609C301.117 337.047 301.75 337.672 302.281 338.484C302.812 339.297 303.219 340.273 303.5 341.414C303.797 342.539 303.945 343.789 303.945 345.164C303.945 346.008 303.883 346.828 303.758 347.625C303.633 348.422 303.453 349.164 303.219 349.852C302.984 350.539 302.695 351.164 302.352 351.727C302.023 352.289 301.656 352.75 301.25 353.109C300.312 353.953 299.195 354.375 297.898 354.375C297.07 354.375 296.312 354.211 295.625 353.883C294.953 353.539 294.367 353.047 293.867 352.406C293.57 352.016 293.297 351.547 293.047 351C292.797 350.438 292.578 349.836 292.391 349.195C292.219 348.539 292.078 347.859 291.969 347.156C291.875 346.438 291.828 345.727 291.828 345.023C291.828 344.211 291.891 343.414 292.016 342.633C292.156 341.836 292.344 341.094 292.578 340.406C292.828 339.719 293.125 339.102 293.469 338.555C293.812 337.992 294.188 337.531 294.594 337.172C295.078 336.734 295.594 336.422 296.141 336.234C296.688 336.031 297.312 335.93 298.016 335.93ZM297.852 336.609C296.727 336.609 295.875 337.344 295.297 338.812C294.719 340.281 294.43 342.414 294.43 345.211C294.43 350.852 295.586 353.672 297.898 353.672C299.039 353.672 299.898 352.977 300.477 351.586C301.07 350.18 301.367 348.094 301.367 345.328C301.367 342.422 301.07 340.242 300.477 338.789C299.898 337.336 299.023 336.609 297.852 336.609Z" fill="black"/>
<path d="M672.992 335.977V352.031C672.992 352.359 673.023 352.625 673.086 352.828C673.148 353.016 673.273 353.172 673.461 353.297C673.648 353.406 673.906 353.484 674.234 353.531C674.578 353.578 675.016 353.609 675.547 353.625V354H668.164V353.625C668.68 353.609 669.102 353.562 669.43 353.484C669.758 353.406 670.016 353.289 670.203 353.133C670.391 352.977 670.516 352.773 670.578 352.523C670.656 352.258 670.695 351.922 670.695 351.516V339.422C670.695 338.562 670.43 338.133 669.898 338.133C669.617 338.133 669.211 338.234 668.68 338.438L667.953 338.742V338.344L672.758 335.93L672.992 335.977ZM682.109 340.688C682.906 340.828 683.602 340.977 684.195 341.133C684.805 341.289 685.336 341.461 685.789 341.648C686.258 341.836 686.664 342.047 687.008 342.281C687.367 342.516 687.703 342.781 688.016 343.078C688.344 343.422 688.617 343.758 688.836 344.086C689.055 344.414 689.234 344.758 689.375 345.117C689.516 345.461 689.617 345.836 689.68 346.242C689.742 346.633 689.773 347.062 689.773 347.531C689.773 349.547 689.188 351.133 688.016 352.289C687.328 352.977 686.508 353.5 685.555 353.859C684.617 354.203 683.586 354.375 682.461 354.375C681.461 354.375 680.672 354.227 680.094 353.93C679.531 353.633 679.25 353.234 679.25 352.734C679.25 352.062 679.617 351.727 680.352 351.727C680.664 351.727 680.977 351.797 681.289 351.938C681.602 352.062 681.969 352.289 682.391 352.617C682.812 352.914 683.148 353.117 683.398 353.227C683.648 353.336 683.906 353.391 684.172 353.391C684.703 353.391 685.195 353.273 685.648 353.039C686.102 352.805 686.492 352.484 686.82 352.078C687.164 351.656 687.43 351.172 687.617 350.625C687.805 350.078 687.898 349.484 687.898 348.844C687.898 347.453 687.523 346.336 686.773 345.492C686.023 344.633 684.844 343.953 683.234 343.453C682.688 343.312 682.18 343.203 681.711 343.125C681.258 343.031 680.828 342.984 680.422 342.984C680.203 342.984 680.094 342.914 680.094 342.773C680.094 342.695 680.102 342.648 680.117 342.633L683.023 336.281H688.625C688.906 336.281 689.125 336.242 689.281 336.164C689.453 336.07 689.648 335.883 689.867 335.602L690.102 335.789L689.07 338.18C689.023 338.258 688.961 338.32 688.883 338.367C688.82 338.398 688.68 338.414 688.461 338.414H683.234L682.109 340.688ZM695.422 341.719C695.812 341.719 696.156 341.875 696.453 342.188C696.75 342.484 696.898 342.836 696.898 343.242C696.898 343.633 696.75 343.977 696.453 344.273C696.156 344.555 695.805 344.695 695.398 344.695C694.992 344.695 694.641 344.555 694.344 344.273C694.062 343.977 693.922 343.625 693.922 343.219C693.922 342.812 694.07 342.461 694.367 342.164C694.664 341.867 695.016 341.719 695.422 341.719ZM695.422 351.352C695.812 351.352 696.156 351.5 696.453 351.797C696.75 352.094 696.898 352.445 696.898 352.852C696.898 353.242 696.75 353.586 696.453 353.883C696.156 354.164 695.805 354.305 695.398 354.305C694.992 354.305 694.641 354.164 694.344 353.883C694.062 353.586 693.922 353.234 693.922 352.828C693.922 352.406 694.07 352.055 694.367 351.773C694.664 351.492 695.016 351.352 695.422 351.352ZM706.016 335.93C706.875 335.93 707.664 336.156 708.383 336.609C709.117 337.047 709.75 337.672 710.281 338.484C710.812 339.297 711.219 340.273 711.5 341.414C711.797 342.539 711.945 343.789 711.945 345.164C711.945 346.008 711.883 346.828 711.758 347.625C711.633 348.422 711.453 349.164 711.219 349.852C710.984 350.539 710.695 351.164 710.352 351.727C710.023 352.289 709.656 352.75 709.25 353.109C708.312 353.953 707.195 354.375 705.898 354.375C705.07 354.375 704.312 354.211 703.625 353.883C702.953 353.539 702.367 353.047 701.867 352.406C701.57 352.016 701.297 351.547 701.047 351C700.797 350.438 700.578 349.836 700.391 349.195C700.219 348.539 700.078 347.859 699.969 347.156C699.875 346.438 699.828 345.727 699.828 345.023C699.828 344.211 699.891 343.414 700.016 342.633C700.156 341.836 700.344 341.094 700.578 340.406C700.828 339.719 701.125 339.102 701.469 338.555C701.812 337.992 702.188 337.531 702.594 337.172C703.078 336.734 703.594 336.422 704.141 336.234C704.688 336.031 705.312 335.93 706.016 335.93ZM705.852 336.609C704.727 336.609 703.875 337.344 703.297 338.812C702.719 340.281 702.43 342.414 702.43 345.211C702.43 350.852 703.586 353.672 705.898 353.672C707.039 353.672 707.898 352.977 708.477 351.586C709.07 350.18 709.367 348.094 709.367 345.328C709.367 342.422 709.07 340.242 708.477 338.789C707.898 337.336 707.023 336.609 705.852 336.609ZM719.398 335.93C720.258 335.93 721.047 336.156 721.766 336.609C722.5 337.047 723.133 337.672 723.664 338.484C724.195 339.297 724.602 340.273 724.883 341.414C725.18 342.539 725.328 343.789 725.328 345.164C725.328 346.008 725.266 346.828 725.141 347.625C725.016 348.422 724.836 349.164 724.602 349.852C724.367 350.539 724.078 351.164 723.734 351.727C723.406 352.289 723.039 352.75 722.633 353.109C721.695 353.953 720.578 354.375 719.281 354.375C718.453 354.375 717.695 354.211 717.008 353.883C716.336 353.539 715.75 353.047 715.25 352.406C714.953 352.016 714.68 351.547 714.43 351C714.18 350.438 713.961 349.836 713.773 349.195C713.602 348.539 713.461 347.859 713.352 347.156C713.258 346.438 713.211 345.727 713.211 345.023C713.211 344.211 713.273 343.414 713.398 342.633C713.539 341.836 713.727 341.094 713.961 340.406C714.211 339.719 714.508 339.102 714.852 338.555C715.195 337.992 715.57 337.531 715.977 337.172C716.461 336.734 716.977 336.422 717.523 336.234C718.07 336.031 718.695 335.93 719.398 335.93ZM719.234 336.609C718.109 336.609 717.258 337.344 716.68 338.812C716.102 340.281 715.812 342.414 715.812 345.211C715.812 350.852 716.969 353.672 719.281 353.672C720.422 353.672 721.281 352.977 721.859 351.586C722.453 350.18 722.75 348.094 722.75 345.328C722.75 342.422 722.453 340.242 721.859 338.789C721.281 337.336 720.406 336.609 719.234 336.609Z" fill="black"/>
<path d="M961.227 354H950.797V353.672L955.555 348.633C956.68 347.43 957.539 346.234 958.133 345.047C958.742 343.859 959.047 342.742 959.047 341.695C959.047 340.555 958.703 339.641 958.016 338.953C957.344 338.25 956.422 337.898 955.25 337.898C954.781 337.898 954.367 337.961 954.008 338.086C953.648 338.195 953.32 338.391 953.023 338.672C952.727 338.938 952.445 339.289 952.18 339.727C951.914 340.164 951.648 340.711 951.383 341.367L950.82 341.25C950.93 340.781 951.039 340.367 951.148 340.008C951.273 339.648 951.398 339.328 951.523 339.047C951.664 338.766 951.812 338.508 951.969 338.273C952.125 338.039 952.312 337.805 952.531 337.57C953.031 337.039 953.609 336.633 954.266 336.352C954.938 336.07 955.641 335.93 956.375 335.93C957.078 335.93 957.727 336.055 958.32 336.305C958.93 336.539 959.453 336.867 959.891 337.289C960.344 337.711 960.695 338.211 960.945 338.789C961.211 339.352 961.344 339.961 961.344 340.617C961.344 341.695 961.062 342.758 960.5 343.805C959.953 344.852 959.094 346.008 957.922 347.273L953.422 351.961H959.797C960.094 351.961 960.352 351.945 960.57 351.914C960.789 351.867 960.984 351.781 961.156 351.656C961.344 351.531 961.523 351.352 961.695 351.117C961.883 350.883 962.102 350.57 962.352 350.18L962.703 350.344L961.227 354ZM971.375 335.977V352.031C971.375 352.359 971.406 352.625 971.469 352.828C971.531 353.016 971.656 353.172 971.844 353.297C972.031 353.406 972.289 353.484 972.617 353.531C972.961 353.578 973.398 353.609 973.93 353.625V354H966.547V353.625C967.062 353.609 967.484 353.562 967.812 353.484C968.141 353.406 968.398 353.289 968.586 353.133C968.773 352.977 968.898 352.773 968.961 352.523C969.039 352.258 969.078 351.922 969.078 351.516V339.422C969.078 338.562 968.812 338.133 968.281 338.133C968 338.133 967.594 338.234 967.062 338.438L966.336 338.742V338.344L971.141 335.93L971.375 335.977ZM980.422 341.719C980.812 341.719 981.156 341.875 981.453 342.188C981.75 342.484 981.898 342.836 981.898 343.242C981.898 343.633 981.75 343.977 981.453 344.273C981.156 344.555 980.805 344.695 980.398 344.695C979.992 344.695 979.641 344.555 979.344 344.273C979.062 343.977 978.922 343.625 978.922 343.219C978.922 342.812 979.07 342.461 979.367 342.164C979.664 341.867 980.016 341.719 980.422 341.719ZM980.422 351.352C980.812 351.352 981.156 351.5 981.453 351.797C981.75 352.094 981.898 352.445 981.898 352.852C981.898 353.242 981.75 353.586 981.453 353.883C981.156 354.164 980.805 354.305 980.398 354.305C979.992 354.305 979.641 354.164 979.344 353.883C979.062 353.586 978.922 353.234 978.922 352.828C978.922 352.406 979.07 352.055 979.367 351.773C979.664 351.492 980.016 351.352 980.422 351.352ZM991.016 335.93C991.875 335.93 992.664 336.156 993.383 336.609C994.117 337.047 994.75 337.672 995.281 338.484C995.812 339.297 996.219 340.273 996.5 341.414C996.797 342.539 996.945 343.789 996.945 345.164C996.945 346.008 996.883 346.828 996.758 347.625C996.633 348.422 996.453 349.164 996.219 349.852C995.984 350.539 995.695 351.164 995.352 351.727C995.023 352.289 994.656 352.75 994.25 353.109C993.312 353.953 992.195 354.375 990.898 354.375C990.07 354.375 989.312 354.211 988.625 353.883C987.953 353.539 987.367 353.047 986.867 352.406C986.57 352.016 986.297 351.547 986.047 351C985.797 350.438 985.578 349.836 985.391 349.195C985.219 348.539 985.078 347.859 984.969 347.156C984.875 346.438 984.828 345.727 984.828 345.023C984.828 344.211 984.891 343.414 985.016 342.633C985.156 341.836 985.344 341.094 985.578 340.406C985.828 339.719 986.125 339.102 986.469 338.555C986.812 337.992 987.188 337.531 987.594 337.172C988.078 336.734 988.594 336.422 989.141 336.234C989.688 336.031 990.312 335.93 991.016 335.93ZM990.852 336.609C989.727 336.609 988.875 337.344 988.297 338.812C987.719 340.281 987.43 342.414 987.43 345.211C987.43 350.852 988.586 353.672 990.898 353.672C992.039 353.672 992.898 352.977 993.477 351.586C994.07 350.18 994.367 348.094 994.367 345.328C994.367 342.422 994.07 340.242 993.477 338.789C992.898 337.336 992.023 336.609 990.852 336.609ZM1004.4 335.93C1005.26 335.93 1006.05 336.156 1006.77 336.609C1007.5 337.047 1008.13 337.672 1008.66 338.484C1009.2 339.297 1009.6 340.273 1009.88 341.414C1010.18 342.539 1010.33 343.789 1010.33 345.164C1010.33 346.008 1010.27 346.828 1010.14 347.625C1010.02 348.422 1009.84 349.164 1009.6 349.852C1009.37 350.539 1009.08 351.164 1008.73 351.727C1008.41 352.289 1008.04 352.75 1007.63 353.109C1006.7 353.953 1005.58 354.375 1004.28 354.375C1003.45 354.375 1002.7 354.211 1002.01 353.883C1001.34 353.539 1000.75 353.047 1000.25 352.406C999.953 352.016 999.68 351.547 999.43 351C999.18 350.438 998.961 349.836 998.773 349.195C998.602 348.539 998.461 347.859 998.352 347.156C998.258 346.438 998.211 345.727 998.211 345.023C998.211 344.211 998.273 343.414 998.398 342.633C998.539 341.836 998.727 341.094 998.961 340.406C999.211 339.719 999.508 339.102 999.852 338.555C1000.2 337.992 1000.57 337.531 1000.98 337.172C1001.46 336.734 1001.98 336.422 1002.52 336.234C1003.07 336.031 1003.7 335.93 1004.4 335.93ZM1004.23 336.609C1003.11 336.609 1002.26 337.344 1001.68 338.812C1001.1 340.281 1000.81 342.414 1000.81 345.211C1000.81 350.852 1001.97 353.672 1004.28 353.672C1005.42 353.672 1006.28 352.977 1006.86 351.586C1007.45 350.18 1007.75 348.094 1007.75 345.328C1007.75 342.422 1007.45 340.242 1006.86 338.789C1006.28 337.336 1005.41 336.609 1004.23 336.609Z" fill="black"/>
<path d="M398.5 354.07C399.516 353.898 400.461 353.594 401.336 353.156C402.211 352.719 402.992 352.164 403.68 351.492C404.367 350.82 404.961 350.039 405.461 349.148C405.961 348.242 406.352 347.242 406.633 346.148C405.914 346.695 405.25 347.086 404.641 347.32C404.031 347.555 403.352 347.672 402.602 347.672C401.883 347.672 401.227 347.547 400.633 347.297C400.039 347.031 399.531 346.664 399.109 346.195C398.688 345.711 398.359 345.141 398.125 344.484C397.906 343.812 397.797 343.07 397.797 342.258C397.797 341.352 397.938 340.516 398.219 339.75C398.5 338.969 398.891 338.297 399.391 337.734C399.891 337.172 400.477 336.734 401.148 336.422C401.82 336.094 402.555 335.93 403.352 335.93C404.227 335.93 405.023 336.117 405.742 336.492C406.477 336.852 407.102 337.367 407.617 338.039C408.148 338.695 408.555 339.484 408.836 340.406C409.133 341.328 409.281 342.344 409.281 343.453C409.281 344.375 409.18 345.273 408.977 346.148C408.773 347.023 408.477 347.852 408.086 348.633C407.695 349.414 407.211 350.141 406.633 350.812C406.07 351.469 405.43 352.039 404.711 352.523C404.258 352.836 403.82 353.109 403.398 353.344C402.977 353.562 402.531 353.75 402.062 353.906C401.594 354.062 401.078 354.195 400.516 354.305C399.953 354.414 399.305 354.508 398.57 354.586L398.5 354.07ZM406.68 343.453C406.68 341.203 406.383 339.508 405.789 338.367C405.195 337.227 404.312 336.656 403.141 336.656C402.312 336.656 401.664 336.961 401.195 337.57C401.055 337.758 400.93 337.992 400.82 338.273C400.711 338.539 400.609 338.844 400.516 339.188C400.438 339.516 400.375 339.867 400.328 340.242C400.281 340.602 400.258 340.961 400.258 341.32C400.258 342.93 400.555 344.203 401.148 345.141C401.742 346.062 402.547 346.523 403.562 346.523C404.062 346.523 404.547 346.438 405.016 346.266C405.5 346.078 405.938 345.82 406.328 345.492C406.453 345.383 406.539 345.258 406.586 345.117C406.648 344.977 406.68 344.781 406.68 344.531V343.453ZM414.039 341.719C414.43 341.719 414.773 341.875 415.07 342.188C415.367 342.484 415.516 342.836 415.516 343.242C415.516 343.633 415.367 343.977 415.07 344.273C414.773 344.555 414.422 344.695 414.016 344.695C413.609 344.695 413.258 344.555 412.961 344.273C412.68 343.977 412.539 343.625 412.539 343.219C412.539 342.812 412.688 342.461 412.984 342.164C413.281 341.867 413.633 341.719 414.039 341.719ZM414.039 351.352C414.43 351.352 414.773 351.5 415.07 351.797C415.367 352.094 415.516 352.445 415.516 352.852C415.516 353.242 415.367 353.586 415.07 353.883C414.773 354.164 414.422 354.305 414.016 354.305C413.609 354.305 413.258 354.164 412.961 353.883C412.68 353.586 412.539 353.234 412.539 352.828C412.539 352.406 412.688 352.055 412.984 351.773C413.281 351.492 413.633 351.352 414.039 351.352ZM424.633 335.93C425.492 335.93 426.281 336.156 427 336.609C427.734 337.047 428.367 337.672 428.898 338.484C429.43 339.297 429.836 340.273 430.117 341.414C430.414 342.539 430.562 343.789 430.562 345.164C430.562 346.008 430.5 346.828 430.375 347.625C430.25 348.422 430.07 349.164 429.836 349.852C429.602 350.539 429.312 351.164 428.969 351.727C428.641 352.289 428.273 352.75 427.867 353.109C426.93 353.953 425.812 354.375 424.516 354.375C423.688 354.375 422.93 354.211 422.242 353.883C421.57 353.539 420.984 353.047 420.484 352.406C420.188 352.016 419.914 351.547 419.664 351C419.414 350.438 419.195 349.836 419.008 349.195C418.836 348.539 418.695 347.859 418.586 347.156C418.492 346.438 418.445 345.727 418.445 345.023C418.445 344.211 418.508 343.414 418.633 342.633C418.773 341.836 418.961 341.094 419.195 340.406C419.445 339.719 419.742 339.102 420.086 338.555C420.43 337.992 420.805 337.531 421.211 337.172C421.695 336.734 422.211 336.422 422.758 336.234C423.305 336.031 423.93 335.93 424.633 335.93ZM424.469 336.609C423.344 336.609 422.492 337.344 421.914 338.812C421.336 340.281 421.047 342.414 421.047 345.211C421.047 350.852 422.203 353.672 424.516 353.672C425.656 353.672 426.516 352.977 427.094 351.586C427.688 350.18 427.984 348.094 427.984 345.328C427.984 342.422 427.688 340.242 427.094 338.789C426.516 337.336 425.641 336.609 424.469 336.609ZM438.016 335.93C438.875 335.93 439.664 336.156 440.383 336.609C441.117 337.047 441.75 337.672 442.281 338.484C442.812 339.297 443.219 340.273 443.5 341.414C443.797 342.539 443.945 343.789 443.945 345.164C443.945 346.008 443.883 346.828 443.758 347.625C443.633 348.422 443.453 349.164 443.219 349.852C442.984 350.539 442.695 351.164 442.352 351.727C442.023 352.289 441.656 352.75 441.25 353.109C440.312 353.953 439.195 354.375 437.898 354.375C437.07 354.375 436.312 354.211 435.625 353.883C434.953 353.539 434.367 353.047 433.867 352.406C433.57 352.016 433.297 351.547 433.047 351C432.797 350.438 432.578 349.836 432.391 349.195C432.219 348.539 432.078 347.859 431.969 347.156C431.875 346.438 431.828 345.727 431.828 345.023C431.828 344.211 431.891 343.414 432.016 342.633C432.156 341.836 432.344 341.094 432.578 340.406C432.828 339.719 433.125 339.102 433.469 338.555C433.812 337.992 434.188 337.531 434.594 337.172C435.078 336.734 435.594 336.422 436.141 336.234C436.688 336.031 437.312 335.93 438.016 335.93ZM437.852 336.609C436.727 336.609 435.875 337.344 435.297 338.812C434.719 340.281 434.43 342.414 434.43 345.211C434.43 350.852 435.586 353.672 437.898 353.672C439.039 353.672 439.898 352.977 440.477 351.586C441.07 350.18 441.367 348.094 441.367 345.328C441.367 342.422 441.07 340.242 440.477 338.789C439.898 337.336 439.023 336.609 437.852 336.609Z" fill="black"/>
<path d="M121.078 344.836C121.531 344.68 121.922 344.531 122.25 344.391C122.594 344.25 122.891 344.109 123.141 343.969C123.406 343.828 123.641 343.68 123.844 343.523C124.047 343.367 124.25 343.188 124.453 342.984C124.781 342.641 125.039 342.242 125.227 341.789C125.414 341.32 125.508 340.852 125.508 340.383C125.508 339.523 125.234 338.836 124.688 338.32C124.156 337.789 123.445 337.523 122.555 337.523C121.711 337.523 120.977 337.75 120.352 338.203C119.727 338.641 119.141 339.359 118.594 340.359L118.172 340.242C118.328 339.852 118.469 339.508 118.594 339.211C118.734 338.914 118.867 338.648 118.992 338.414C119.133 338.18 119.281 337.969 119.438 337.781C119.594 337.594 119.773 337.406 119.977 337.219C120.961 336.359 122.117 335.93 123.445 335.93C124.695 335.93 125.695 336.266 126.445 336.938C127.211 337.594 127.594 338.477 127.594 339.586C127.594 339.945 127.547 340.281 127.453 340.594C127.375 340.906 127.242 341.211 127.055 341.508C126.867 341.789 126.609 342.078 126.281 342.375C125.969 342.656 125.578 342.961 125.109 343.289C125.703 343.539 126.156 343.766 126.469 343.969C126.781 344.156 127.078 344.398 127.359 344.695C127.734 345.102 128.016 345.609 128.203 346.219C128.406 346.812 128.508 347.461 128.508 348.164C128.508 349.102 128.328 349.961 127.969 350.742C127.625 351.523 127.117 352.188 126.445 352.734C125.789 353.234 124.984 353.633 124.031 353.93C123.094 354.227 122.125 354.375 121.125 354.375C120.203 354.375 119.477 354.242 118.945 353.977C118.414 353.695 118.148 353.32 118.148 352.852C118.148 352.57 118.234 352.344 118.406 352.172C118.594 352 118.844 351.914 119.156 351.914C119.391 351.914 119.633 351.969 119.883 352.078C120.133 352.172 120.453 352.344 120.844 352.594C121.344 352.906 121.75 353.125 122.062 353.25C122.391 353.359 122.742 353.414 123.117 353.414C123.617 353.414 124.078 353.312 124.5 353.109C124.922 352.906 125.289 352.633 125.602 352.289C125.914 351.93 126.156 351.508 126.328 351.023C126.5 350.523 126.586 349.992 126.586 349.43C126.586 348.492 126.336 347.664 125.836 346.945C125.352 346.227 124.68 345.727 123.82 345.445C123.523 345.336 123.18 345.266 122.789 345.234C122.414 345.188 121.844 345.164 121.078 345.164V344.836ZM134.039 341.719C134.43 341.719 134.773 341.875 135.07 342.188C135.367 342.484 135.516 342.836 135.516 343.242C135.516 343.633 135.367 343.977 135.07 344.273C134.773 344.555 134.422 344.695 134.016 344.695C133.609 344.695 133.258 344.555 132.961 344.273C132.68 343.977 132.539 343.625 132.539 343.219C132.539 342.812 132.688 342.461 132.984 342.164C133.281 341.867 133.633 341.719 134.039 341.719ZM134.039 351.352C134.43 351.352 134.773 351.5 135.07 351.797C135.367 352.094 135.516 352.445 135.516 352.852C135.516 353.242 135.367 353.586 135.07 353.883C134.773 354.164 134.422 354.305 134.016 354.305C133.609 354.305 133.258 354.164 132.961 353.883C132.68 353.586 132.539 353.234 132.539 352.828C132.539 352.406 132.688 352.055 132.984 351.773C133.281 351.492 133.633 351.352 134.039 351.352ZM144.633 335.93C145.492 335.93 146.281 336.156 147 336.609C147.734 337.047 148.367 337.672 148.898 338.484C149.43 339.297 149.836 340.273 150.117 341.414C150.414 342.539 150.562 343.789 150.562 345.164C150.562 346.008 150.5 346.828 150.375 347.625C150.25 348.422 150.07 349.164 149.836 349.852C149.602 350.539 149.312 351.164 148.969 351.727C148.641 352.289 148.273 352.75 147.867 353.109C146.93 353.953 145.812 354.375 144.516 354.375C143.688 354.375 142.93 354.211 142.242 353.883C141.57 353.539 140.984 353.047 140.484 352.406C140.188 352.016 139.914 351.547 139.664 351C139.414 350.438 139.195 349.836 139.008 349.195C138.836 348.539 138.695 347.859 138.586 347.156C138.492 346.438 138.445 345.727 138.445 345.023C138.445 344.211 138.508 343.414 138.633 342.633C138.773 341.836 138.961 341.094 139.195 340.406C139.445 339.719 139.742 339.102 140.086 338.555C140.43 337.992 140.805 337.531 141.211 337.172C141.695 336.734 142.211 336.422 142.758 336.234C143.305 336.031 143.93 335.93 144.633 335.93ZM144.469 336.609C143.344 336.609 142.492 337.344 141.914 338.812C141.336 340.281 141.047 342.414 141.047 345.211C141.047 350.852 142.203 353.672 144.516 353.672C145.656 353.672 146.516 352.977 147.094 351.586C147.688 350.18 147.984 348.094 147.984 345.328C147.984 342.422 147.688 340.242 147.094 338.789C146.516 337.336 145.641 336.609 144.469 336.609ZM158.016 335.93C158.875 335.93 159.664 336.156 160.383 336.609C161.117 337.047 161.75 337.672 162.281 338.484C162.812 339.297 163.219 340.273 163.5 341.414C163.797 342.539 163.945 343.789 163.945 345.164C163.945 346.008 163.883 346.828 163.758 347.625C163.633 348.422 163.453 349.164 163.219 349.852C162.984 350.539 162.695 351.164 162.352 351.727C162.023 352.289 161.656 352.75 161.25 353.109C160.312 353.953 159.195 354.375 157.898 354.375C157.07 354.375 156.312 354.211 155.625 353.883C154.953 353.539 154.367 353.047 153.867 352.406C153.57 352.016 153.297 351.547 153.047 351C152.797 350.438 152.578 349.836 152.391 349.195C152.219 348.539 152.078 347.859 151.969 347.156C151.875 346.438 151.828 345.727 151.828 345.023C151.828 344.211 151.891 343.414 152.016 342.633C152.156 341.836 152.344 341.094 152.578 340.406C152.828 339.719 153.125 339.102 153.469 338.555C153.812 337.992 154.188 337.531 154.594 337.172C155.078 336.734 155.594 336.422 156.141 336.234C156.688 336.031 157.312 335.93 158.016 335.93ZM157.852 336.609C156.727 336.609 155.875 337.344 155.297 338.812C154.719 340.281 154.43 342.414 154.43 345.211C154.43 350.852 155.586 353.672 157.898 353.672C159.039 353.672 159.898 352.977 160.477 351.586C161.07 350.18 161.367 348.094 161.367 345.328C161.367 342.422 161.07 340.242 160.477 338.789C159.898 337.336 159.023 336.609 157.852 336.609Z" fill="black"/>
<rect x="1" y="74" width="140" height="34" fill="#D9D9D9"/>
<rect x="841" y="74" width="280" height="34" fill="#D9D9D9"/>
<rect x="95" y="210" width="420" height="34" fill="#D9D9D9"/>
<rect x="1" y="6" width="1120" height="34" fill="#D9D9D9"/>
<rect y="142" width="188" height="34" fill="#D9D9D9"/>
<rect x="888" y="140" width="233" height="34" fill="#D9D9D9"/>
<path d="M898.344 148.406C897.594 148.406 896.977 148.445 896.492 148.523C896.023 148.602 895.633 148.766 895.32 149.016C895.023 149.266 894.781 149.617 894.594 150.07C894.422 150.508 894.258 151.094 894.102 151.828H893.445L893.609 147.281H908.703L908.867 151.828H908.211C908.055 151.094 907.883 150.508 907.695 150.07C907.523 149.617 907.289 149.266 906.992 149.016C906.695 148.766 906.305 148.602 905.82 148.523C905.336 148.445 904.711 148.406 903.945 148.406H902.516V162.117C902.516 162.602 902.547 162.992 902.609 163.289C902.672 163.586 902.789 163.82 902.961 163.992C903.148 164.164 903.406 164.289 903.734 164.367C904.078 164.43 904.523 164.477 905.07 164.508V165H897.289V164.508C897.836 164.477 898.273 164.43 898.602 164.367C898.93 164.289 899.18 164.156 899.352 163.969C899.539 163.766 899.656 163.492 899.703 163.148C899.766 162.805 899.797 162.352 899.797 161.789V148.406H898.344ZM916.016 152.695C916.875 152.695 917.664 152.844 918.383 153.141C919.102 153.438 919.719 153.859 920.234 154.406C920.766 154.938 921.18 155.57 921.477 156.305C921.773 157.039 921.922 157.852 921.922 158.742C921.922 159.68 921.766 160.547 921.453 161.344C921.156 162.125 920.742 162.812 920.211 163.406C919.68 163.984 919.047 164.438 918.312 164.766C917.594 165.094 916.812 165.258 915.969 165.258C915.125 165.258 914.344 165.102 913.625 164.789C912.906 164.477 912.289 164.039 911.773 163.477C911.258 162.914 910.852 162.25 910.555 161.484C910.258 160.719 910.109 159.883 910.109 158.977C910.109 158.055 910.25 157.211 910.531 156.445C910.828 155.664 911.234 155 911.75 154.453C912.266 153.891 912.883 153.461 913.602 153.164C914.336 152.852 915.141 152.695 916.016 152.695ZM915.617 153.445C914.68 153.445 913.93 153.828 913.367 154.594C912.805 155.359 912.523 156.375 912.523 157.641C912.523 158.594 912.625 159.523 912.828 160.43C913.031 161.32 913.32 162.117 913.695 162.82C913.977 163.367 914.352 163.789 914.82 164.086C915.289 164.383 915.797 164.531 916.344 164.531C917.328 164.531 918.094 164.102 918.641 163.242C919.203 162.367 919.484 161.172 919.484 159.656C919.484 158.516 919.32 157.453 918.992 156.469C918.664 155.484 918.219 154.742 917.656 154.242C917.359 153.961 917.047 153.758 916.719 153.633C916.391 153.508 916.023 153.445 915.617 153.445ZM922.906 147.891L923.703 147.703C924.109 147.594 924.461 147.5 924.758 147.422C925.055 147.328 925.328 147.242 925.578 147.164C925.844 147.086 926.086 147.016 926.305 146.953C926.539 146.875 926.789 146.797 927.055 146.719L927.148 146.789V158.039L930.828 154.758C931.234 154.383 931.438 154.062 931.438 153.797C931.438 153.641 931.344 153.531 931.156 153.469C930.969 153.406 930.617 153.359 930.102 153.328V152.953H935.562V153.375C935.141 153.359 934.758 153.391 934.414 153.469C934.07 153.531 933.695 153.68 933.289 153.914C932.883 154.148 932.406 154.492 931.859 154.945C931.312 155.383 930.617 155.977 929.773 156.727L929 157.43L933.125 162.656C933.672 163.344 934.172 163.836 934.625 164.133C935.094 164.414 935.625 164.578 936.219 164.625V165H930.406V164.625H930.898C931.07 164.625 931.203 164.586 931.297 164.508C931.406 164.43 931.461 164.328 931.461 164.203C931.461 164.125 931.438 164.047 931.391 163.969C931.359 163.875 931.281 163.766 931.156 163.641C931.062 163.516 931.008 163.438 930.992 163.406L930.898 163.289L927.148 158.297V163.219C927.148 163.672 927.258 164.008 927.477 164.227C927.711 164.43 928.094 164.547 928.625 164.578L929.164 164.625V165H922.906V164.625C923.375 164.547 923.742 164.477 924.008 164.414C924.289 164.336 924.492 164.242 924.617 164.133C924.742 164.008 924.82 163.844 924.852 163.641C924.883 163.438 924.898 163.164 924.898 162.82V149.906C924.898 149.266 924.82 148.836 924.664 148.617C924.508 148.398 924.203 148.289 923.75 148.289C923.625 148.289 923.492 148.297 923.352 148.312C923.227 148.312 923.078 148.32 922.906 148.336V147.891ZM940.883 152.766V162.281C940.883 162.766 940.898 163.156 940.93 163.453C940.977 163.734 941.07 163.961 941.211 164.133C941.352 164.289 941.547 164.398 941.797 164.461C942.062 164.523 942.422 164.578 942.875 164.625V165H936.523V164.625C936.992 164.594 937.359 164.547 937.625 164.484C937.906 164.406 938.117 164.289 938.258 164.133C938.414 163.961 938.516 163.734 938.562 163.453C938.609 163.156 938.633 162.766 938.633 162.281V156.07C938.633 155.477 938.562 155.062 938.422 154.828C938.297 154.578 938.078 154.453 937.766 154.453C937.641 154.453 937.492 154.461 937.32 154.477C937.164 154.492 937 154.516 936.828 154.547L936.641 154.57V154.172L940.766 152.695L940.883 152.766ZM939.547 146.719C939.922 146.719 940.242 146.859 940.508 147.141C940.773 147.406 940.906 147.727 940.906 148.102C940.906 148.492 940.773 148.82 940.508 149.086C940.258 149.336 939.93 149.461 939.523 149.461C939.133 149.461 938.812 149.336 938.562 149.086C938.312 148.82 938.188 148.492 938.188 148.102C938.188 147.727 938.32 147.406 938.586 147.141C938.852 146.859 939.172 146.719 939.547 146.719ZM950.234 152.695C951.094 152.695 951.883 152.844 952.602 153.141C953.32 153.438 953.938 153.859 954.453 154.406C954.984 154.938 955.398 155.57 955.695 156.305C955.992 157.039 956.141 157.852 956.141 158.742C956.141 159.68 955.984 160.547 955.672 161.344C955.375 162.125 954.961 162.812 954.43 163.406C953.898 163.984 953.266 164.438 952.531 164.766C951.812 165.094 951.031 165.258 950.188 165.258C949.344 165.258 948.562 165.102 947.844 164.789C947.125 164.477 946.508 164.039 945.992 163.477C945.477 162.914 945.07 162.25 944.773 161.484C944.477 160.719 944.328 159.883 944.328 158.977C944.328 158.055 944.469 157.211 944.75 156.445C945.047 155.664 945.453 155 945.969 154.453C946.484 153.891 947.102 153.461 947.82 153.164C948.555 152.852 949.359 152.695 950.234 152.695ZM949.836 153.445C948.898 153.445 948.148 153.828 947.586 154.594C947.023 155.359 946.742 156.375 946.742 157.641C946.742 158.594 946.844 159.523 947.047 160.43C947.25 161.32 947.539 162.117 947.914 162.82C948.195 163.367 948.57 163.789 949.039 164.086C949.508 164.383 950.016 164.531 950.562 164.531C951.547 164.531 952.312 164.102 952.859 163.242C953.422 162.367 953.703 161.172 953.703 159.656C953.703 158.516 953.539 157.453 953.211 156.469C952.883 155.484 952.438 154.742 951.875 154.242C951.578 153.961 951.266 153.758 950.938 153.633C950.609 153.508 950.242 153.445 949.836 153.445Z" fill="black"/>
<rect x="421" y="274" width="396" height="34" fill="#D9D9D9"/>
<path d="M16.9141 31.3047L5.07812 16.5859V27.0625C5.07812 27.75 5.10938 28.3125 5.17188 28.75C5.25 29.1719 5.38281 29.5078 5.57031 29.7578C5.75781 30.0078 6.01562 30.1875 6.34375 30.2969C6.67188 30.4062 7.09375 30.4766 7.60938 30.5078V31H1.32812V30.5078C1.875 30.4609 2.3125 30.3906 2.64062 30.2969C2.98438 30.1875 3.24219 30.0078 3.41406 29.7578C3.60156 29.5078 3.72656 29.1719 3.78906 28.75C3.85156 28.3125 3.88281 27.75 3.88281 27.0625V15.2969C3.61719 14.9844 3.39062 14.7344 3.20312 14.5469C3.01562 14.3438 2.82812 14.1953 2.64062 14.1016C2.45312 13.9922 2.25781 13.9219 2.05469 13.8906C1.85156 13.8438 1.60938 13.8203 1.32812 13.8203V13.2812H5.89844L16.1875 26.2422V17.2188C16.1875 15.5938 15.9297 14.5938 15.4141 14.2188C15.2109 14.0938 14.9844 14.0078 14.7344 13.9609C14.5 13.8984 14.1328 13.8516 13.6328 13.8203V13.2812H19.8906V13.8203C19.3906 13.8516 19.0156 13.9062 18.7656 13.9844C18.5312 14.0625 18.3281 14.1641 18.1562 14.2891C17.625 14.6328 17.3594 15.6094 17.3594 17.2188V31.3047H16.9141ZM33.1328 30.0625C32.4453 30.2344 31.8281 30.4062 31.2812 30.5781C30.7344 30.75 30.1172 30.9688 29.4297 31.2344L29.3594 31.1875V28.9609L28.1875 30.1094C27.8281 30.4844 27.4062 30.7734 26.9219 30.9766C26.4375 31.1641 25.9453 31.2578 25.4453 31.2578C24.4609 31.2578 23.6719 30.9453 23.0781 30.3203C22.5 29.6953 22.2109 28.8516 22.2109 27.7891V21.0859C22.2109 20.4609 22.0938 20.0312 21.8594 19.7969C21.6406 19.5625 21.2031 19.4219 20.5469 19.375V18.9062H24.4375V27.6953C24.4375 28.2578 24.625 28.7422 25 29.1484C25.375 29.5391 25.8281 29.7344 26.3594 29.7344C26.7656 29.7344 27.1719 29.6562 27.5781 29.5C28 29.3281 28.3906 29.0781 28.75 28.75C28.9219 28.625 29.0469 28.4609 29.125 28.2578C29.2031 28.0391 29.2422 27.75 29.2422 27.3906V21.0625C29.2422 20.7344 29.2109 20.4688 29.1484 20.2656C29.1016 20.0469 29 19.875 28.8438 19.75C28.7031 19.625 28.5 19.5391 28.2344 19.4922C27.9688 19.4297 27.6328 19.3906 27.2266 19.375V18.9062H31.4688V28.1406C31.4688 28.7656 31.5703 29.1797 31.7734 29.3828C31.9766 29.5703 32.3828 29.6641 32.9922 29.6641H33.1328V30.0625ZM45.0391 26.8047C44.4766 28.2734 43.7109 29.3828 42.7422 30.1328C41.7891 30.8828 40.6641 31.2578 39.3672 31.2578C38.6016 31.2578 37.9062 31.1172 37.2812 30.8359C36.6719 30.5547 36.1484 30.1562 35.7109 29.6406C35.2734 29.125 34.9375 28.5 34.7031 27.7656C34.4688 27.0312 34.3516 26.2031 34.3516 25.2812C34.3516 24.2969 34.4844 23.3984 34.75 22.5859C35.0312 21.7734 35.4141 21.0781 35.8984 20.5C36.3984 19.9062 36.9922 19.4453 37.6797 19.1172C38.3672 18.7891 39.125 18.625 39.9531 18.625C40.6562 18.625 41.2969 18.7578 41.875 19.0234C42.4688 19.2891 42.9688 19.6641 43.375 20.1484C43.5469 20.3672 43.6875 20.5859 43.7969 20.8047C43.9219 21.0234 44.0234 21.2656 44.1016 21.5312C44.1953 21.7969 44.2734 22.0938 44.3359 22.4219C44.3984 22.75 44.4609 23.125 44.5234 23.5469H36.2969C36.3281 24.4062 36.3984 25.1172 36.5078 25.6797C36.6328 26.2266 36.8281 26.7578 37.0938 27.2734C37.8594 28.7109 38.9844 29.4297 40.4688 29.4297C41.3281 29.4297 42.0703 29.2188 42.6953 28.7969C43.3359 28.375 43.9766 27.6562 44.6172 26.6406L45.0391 26.8047ZM41.8047 22.6562C41.6328 21.5 41.3516 20.7031 40.9609 20.2656C40.5859 19.8125 39.9922 19.5859 39.1797 19.5859C38.3516 19.5859 37.7031 19.8281 37.2344 20.3125C36.7812 20.7969 36.4844 21.5781 36.3438 22.6562H41.8047ZM58.3281 19.375C58.125 19.3906 57.9531 19.4219 57.8125 19.4688C57.6875 19.5156 57.5625 19.6094 57.4375 19.75C57.3281 19.8906 57.2031 20.1016 57.0625 20.3828C56.9375 20.6484 56.7812 21.0078 56.5938 21.4609L53.1719 30.0625C52.9688 30.5469 52.8125 30.8828 52.7031 31.0703C52.5938 31.2734 52.5 31.375 52.4219 31.375C52.3438 31.375 52.2578 31.3203 52.1641 31.2109C52.0859 31.1172 52.0078 30.9375 51.9297 30.6719C51.8984 30.6094 51.8672 30.5391 51.8359 30.4609C51.8047 30.3672 51.7656 30.25 51.7188 30.1094L48.5078 22.4453C48.1953 21.7578 47.9453 21.2109 47.7578 20.8047C47.5703 20.3984 47.3906 20.0938 47.2188 19.8906C47.0625 19.6875 46.8984 19.5547 46.7266 19.4922C46.5547 19.4297 46.3359 19.3906 46.0703 19.375V18.9531H51.2969V19.375C50.8594 19.4062 50.5469 19.4766 50.3594 19.5859C50.1875 19.6953 50.1016 19.8594 50.1016 20.0781C50.1016 20.2188 50.1172 20.3828 50.1484 20.5703C50.1953 20.7422 50.2578 20.9219 50.3359 21.1094L53.0547 27.9531L55.7031 21.0156C55.7656 20.8906 55.8047 20.7578 55.8203 20.6172C55.8359 20.4766 55.8438 20.3438 55.8438 20.2188C55.8438 19.7188 55.4375 19.4375 54.625 19.375V18.9531H58.3281V19.375ZM68.8047 28.1875C68.8047 28.7812 68.8594 29.1953 68.9688 29.4297C69.0781 29.6484 69.2891 29.7578 69.6016 29.7578C69.9609 29.7578 70.3516 29.5938 70.7734 29.2656V29.9453C70.3203 30.4453 69.9219 30.7891 69.5781 30.9766C69.2344 31.1641 68.8359 31.2578 68.3828 31.2578C67.8359 31.2578 67.4297 31.1094 67.1641 30.8125C66.9141 30.5 66.7578 29.9844 66.6953 29.2656C65.8828 29.9688 65.1719 30.4766 64.5625 30.7891C63.9531 31.1016 63.3594 31.2578 62.7812 31.2578C61.9375 31.2578 61.25 30.9922 60.7188 30.4609C60.2031 29.9297 59.9453 29.2422 59.9453 28.3984C59.9453 27.9766 60.0234 27.5547 60.1797 27.1328C60.3516 26.6953 60.5938 26.3438 60.9062 26.0781C61.1875 25.8281 61.4453 25.6172 61.6797 25.4453C61.9297 25.2578 62.25 25.0703 62.6406 24.8828C63.0312 24.6797 63.5391 24.4531 64.1641 24.2031C64.7891 23.9531 65.6172 23.6172 66.6484 23.1953V21.4844C66.6484 20.75 66.4688 20.1953 66.1094 19.8203C65.7656 19.4453 65.2656 19.2578 64.6094 19.2578C64.0625 19.2578 63.6016 19.3906 63.2266 19.6562C62.8672 19.9062 62.6875 20.2109 62.6875 20.5703C62.6875 20.7109 62.7031 20.8906 62.7344 21.1094C62.7812 21.3281 62.8047 21.5078 62.8047 21.6484C62.8047 21.9609 62.6797 22.2266 62.4297 22.4453C62.1953 22.6641 61.9219 22.7734 61.6094 22.7734C61.2969 22.7734 61.0234 22.6641 60.7891 22.4453C60.5703 22.2109 60.4609 21.9375 60.4609 21.625C60.4609 21.2812 60.5547 20.9297 60.7422 20.5703C60.9453 20.2109 61.2188 19.8906 61.5625 19.6094C61.9219 19.2969 62.3984 19.0547 62.9922 18.8828C63.6016 18.7109 64.2578 18.625 64.9609 18.625C65.7734 18.625 66.4531 18.7656 67 19.0469C67.5625 19.3125 67.9922 19.6875 68.2891 20.1719C68.4766 20.4844 68.6094 20.8516 68.6875 21.2734C68.7656 21.6797 68.8047 22.2344 68.8047 22.9375V28.1875ZM66.6484 23.8516C65.8359 24.1484 65.1406 24.4375 64.5625 24.7188C64 24.9844 63.5391 25.2656 63.1797 25.5625C62.8359 25.8438 62.5859 26.1484 62.4297 26.4766C62.2734 26.8047 62.1953 27.1641 62.1953 27.5547V27.6719C62.1953 27.9531 62.2422 28.2266 62.3359 28.4922C62.4297 28.7422 62.5547 28.9609 62.7109 29.1484C62.8828 29.3359 63.0781 29.4844 63.2969 29.5938C63.5156 29.7031 63.7422 29.7578 63.9766 29.7578C64.2578 29.7578 64.5703 29.7031 64.9141 29.5938C65.2734 29.4688 65.6094 29.3203 65.9219 29.1484C66.2344 28.9766 66.4297 28.7969 66.5078 28.6094C66.6016 28.4219 66.6484 28.125 66.6484 27.7188V23.8516ZM96.6953 13.8203C96.3359 13.8359 96.0156 13.8906 95.7344 13.9844C95.4688 14.0781 95.1953 14.2422 94.9141 14.4766C94.6484 14.6953 94.3594 15 94.0469 15.3906C93.75 15.7656 93.3984 16.25 92.9922 16.8438L89.0312 22.8906V28.1172C89.0312 28.6172 89.0625 29.0234 89.125 29.3359C89.1875 29.6328 89.3125 29.8672 89.5 30.0391C89.7031 30.2109 89.9844 30.3281 90.3438 30.3906C90.7031 30.4531 91.1797 30.4922 91.7734 30.5078V31H83.5938V30.5078C84.2031 30.4766 84.6875 30.4297 85.0469 30.3672C85.4062 30.2891 85.6719 30.1562 85.8438 29.9688C86.0312 29.7812 86.1484 29.5156 86.1953 29.1719C86.2578 28.8281 86.2891 28.3672 86.2891 27.7891V23.1484L82.7969 18.0156C82.125 17.0625 81.5781 16.3125 81.1562 15.7656C80.75 15.2031 80.3984 14.7812 80.1016 14.5C79.8047 14.2188 79.5312 14.0391 79.2812 13.9609C79.0469 13.8672 78.7734 13.8203 78.4609 13.8203V13.2812H85.9375V13.8203H85.2812C84.4531 13.8672 84.0391 14.1172 84.0391 14.5703C84.0391 14.9297 84.1953 15.3359 84.5078 15.7891L88.4688 21.7188L92.2891 15.6719C92.5391 15.3125 92.6641 14.9844 92.6641 14.6875C92.6641 14.375 92.5312 14.1562 92.2656 14.0312C92 13.8906 91.5156 13.8203 90.8125 13.8203V13.2812H96.6953V13.8203ZM103.867 18.6953C104.727 18.6953 105.516 18.8438 106.234 19.1406C106.953 19.4375 107.57 19.8594 108.086 20.4062C108.617 20.9375 109.031 21.5703 109.328 22.3047C109.625 23.0391 109.773 23.8516 109.773 24.7422C109.773 25.6797 109.617 26.5469 109.305 27.3438C109.008 28.125 108.594 28.8125 108.062 29.4062C107.531 29.9844 106.898 30.4375 106.164 30.7656C105.445 31.0938 104.664 31.2578 103.82 31.2578C102.977 31.2578 102.195 31.1016 101.477 30.7891C100.758 30.4766 100.141 30.0391 99.625 29.4766C99.1094 28.9141 98.7031 28.25 98.4062 27.4844C98.1094 26.7188 97.9609 25.8828 97.9609 24.9766C97.9609 24.0547 98.1016 23.2109 98.3828 22.4453C98.6797 21.6641 99.0859 21 99.6016 20.4531C100.117 19.8906 100.734 19.4609 101.453 19.1641C102.188 18.8516 102.992 18.6953 103.867 18.6953ZM103.469 19.4453C102.531 19.4453 101.781 19.8281 101.219 20.5938C100.656 21.3594 100.375 22.375 100.375 23.6406C100.375 24.5938 100.477 25.5234 100.68 26.4297C100.883 27.3203 101.172 28.1172 101.547 28.8203C101.828 29.3672 102.203 29.7891 102.672 30.0859C103.141 30.3828 103.648 30.5312 104.195 30.5312C105.18 30.5312 105.945 30.1016 106.492 29.2422C107.055 28.3672 107.336 27.1719 107.336 25.6562C107.336 24.5156 107.172 23.4531 106.844 22.4688C106.516 21.4844 106.07 20.7422 105.508 20.2422C105.211 19.9609 104.898 19.7578 104.57 19.6328C104.242 19.5078 103.875 19.4453 103.469 19.4453ZM110.758 20.1719C111.148 20.0312 111.508 19.9062 111.836 19.7969C112.164 19.6719 112.477 19.5547 112.773 19.4453C113.086 19.3203 113.391 19.2031 113.688 19.0938C114 18.9688 114.336 18.8359 114.695 18.6953L114.859 18.7422V21.2031C115.188 20.7188 115.484 20.3203 115.75 20.0078C116.016 19.6797 116.273 19.4219 116.523 19.2344C116.773 19.0312 117.016 18.8906 117.25 18.8125C117.5 18.7344 117.766 18.6953 118.047 18.6953C118.5 18.6953 118.859 18.8281 119.125 19.0938C119.391 19.3438 119.523 19.6797 119.523 20.1016C119.523 20.4922 119.43 20.7969 119.242 21.0156C119.055 21.2188 118.805 21.3203 118.492 21.3203C118.32 21.3203 118.148 21.2891 117.977 21.2266C117.82 21.1484 117.633 21 117.414 20.7812C117.273 20.6562 117.141 20.5625 117.016 20.5C116.891 20.4375 116.789 20.4062 116.711 20.4062C116.523 20.4062 116.32 20.4844 116.102 20.6406C115.898 20.7812 115.703 20.9609 115.516 21.1797C115.328 21.3984 115.172 21.6328 115.047 21.8828C114.922 22.1328 114.859 22.3672 114.859 22.5859V28.6094C114.859 28.9844 114.891 29.2969 114.953 29.5469C115.016 29.7969 115.133 30 115.305 30.1562C115.477 30.2969 115.711 30.4062 116.008 30.4844C116.305 30.5625 116.68 30.6094 117.133 30.625V31H110.688V30.625C111.109 30.5469 111.445 30.4688 111.695 30.3906C111.961 30.2969 112.156 30.1875 112.281 30.0625C112.422 29.9375 112.508 29.7734 112.539 29.5703C112.586 29.3516 112.609 29.0781 112.609 28.75V22.0703C112.609 21.4766 112.539 21.0625 112.398 20.8281C112.258 20.5781 112.023 20.4531 111.695 20.4531C111.523 20.4531 111.367 20.4609 111.227 20.4766C111.102 20.4922 110.945 20.5234 110.758 20.5703V20.1719ZM119.688 13.8906L120.484 13.7031C120.891 13.5938 121.242 13.5 121.539 13.4219C121.836 13.3281 122.109 13.2422 122.359 13.1641C122.625 13.0859 122.867 13.0156 123.086 12.9531C123.32 12.875 123.57 12.7969 123.836 12.7188L123.93 12.7891V24.0391L127.609 20.7578C128.016 20.3828 128.219 20.0625 128.219 19.7969C128.219 19.6406 128.125 19.5312 127.938 19.4688C127.75 19.4062 127.398 19.3594 126.883 19.3281V18.9531H132.344V19.375C131.922 19.3594 131.539 19.3906 131.195 19.4688C130.852 19.5312 130.477 19.6797 130.07 19.9141C129.664 20.1484 129.188 20.4922 128.641 20.9453C128.094 21.3828 127.398 21.9766 126.555 22.7266L125.781 23.4297L129.906 28.6562C130.453 29.3438 130.953 29.8359 131.406 30.1328C131.875 30.4141 132.406 30.5781 133 30.625V31H127.188V30.625H127.68C127.852 30.625 127.984 30.5859 128.078 30.5078C128.188 30.4297 128.242 30.3281 128.242 30.2031C128.242 30.125 128.219 30.0469 128.172 29.9688C128.141 29.875 128.062 29.7656 127.938 29.6406C127.844 29.5156 127.789 29.4375 127.773 29.4062L127.68 29.2891L123.93 24.2969V29.2188C123.93 29.6719 124.039 30.0078 124.258 30.2266C124.492 30.4297 124.875 30.5469 125.406 30.5781L125.945 30.625V31H119.688V30.625C120.156 30.5469 120.523 30.4766 120.789 30.4141C121.07 30.3359 121.273 30.2422 121.398 30.1328C121.523 30.0078 121.602 29.8438 121.633 29.6406C121.664 29.4375 121.68 29.1641 121.68 28.8203V15.9062C121.68 15.2656 121.602 14.8359 121.445 14.6172C121.289 14.3984 120.984 14.2891 120.531 14.2891C120.406 14.2891 120.273 14.2969 120.133 14.3125C120.008 14.3125 119.859 14.3203 119.688 14.3359V13.8906Z" fill="black"/>
<path d="M860.539 86.625H859.883C859.773 86.2344 859.664 85.8906 859.555 85.5938C859.461 85.2969 859.344 85.0312 859.203 84.7969C859.078 84.5469 858.938 84.3281 858.781 84.1406C858.625 83.9375 858.445 83.7266 858.242 83.5078C857.305 82.5234 856.211 82.0312 854.961 82.0312C854.133 82.0312 853.461 82.25 852.945 82.6875C852.445 83.125 852.195 83.7188 852.195 84.4688C852.195 85.2031 852.5 85.8906 853.109 86.5312C853.719 87.1719 854.719 87.875 856.109 88.6406C857.891 89.6094 859.172 90.5547 859.953 91.4766C860.75 92.3984 861.148 93.4062 861.148 94.5C861.148 95.1875 861.008 95.8281 860.727 96.4219C860.445 97.0156 860.062 97.5312 859.578 97.9688C859.094 98.4062 858.516 98.75 857.844 99C857.172 99.25 856.453 99.375 855.688 99.375C855.141 99.375 854.602 99.3281 854.07 99.2344C853.539 99.1406 853.023 98.9844 852.523 98.7656C852.258 98.6719 852.016 98.6016 851.797 98.5547C851.578 98.4922 851.398 98.4609 851.258 98.4609C851.055 98.4609 850.883 98.5469 850.742 98.7188C850.602 98.8906 850.523 99.1016 850.508 99.3516H849.922L849.125 93.6797H849.734C850.406 95.3203 851.172 96.5234 852.031 97.2891C852.891 98.0391 853.93 98.4141 855.148 98.4141C856.133 98.4141 856.922 98.1406 857.516 97.5938C858.125 97.0469 858.43 96.3281 858.43 95.4375C858.43 95.0938 858.391 94.7891 858.312 94.5234C858.25 94.2578 858.156 94.0312 858.031 93.8438C857.719 93.3438 857.219 92.8281 856.531 92.2969C855.859 91.7656 855.047 91.2344 854.094 90.7031C853.344 90.3125 852.703 89.9219 852.172 89.5312C851.641 89.1406 851.203 88.7344 850.859 88.3125C850.531 87.8906 850.289 87.4531 850.133 87C849.977 86.5469 849.898 86.0547 849.898 85.5234C849.898 84.0391 850.414 82.8828 851.445 82.0547C851.883 81.6953 852.367 81.4219 852.898 81.2344C853.43 81.0312 853.953 80.9297 854.469 80.9297C854.938 80.9297 855.406 80.9844 855.875 81.0938C856.359 81.1875 856.852 81.3281 857.352 81.5156C857.602 81.625 857.828 81.7031 858.031 81.75C858.234 81.7969 858.406 81.8203 858.547 81.8203C858.984 81.8203 859.266 81.5234 859.391 80.9297H859.953L860.539 86.625ZM875.586 87.375C875.273 87.4062 875.016 87.5078 874.812 87.6797C874.625 87.8516 874.445 88.1484 874.273 88.5703L870.172 99.4922C869.797 100.461 869.438 101.281 869.094 101.953C868.75 102.641 868.398 103.195 868.039 103.617C867.695 104.039 867.328 104.344 866.938 104.531C866.547 104.734 866.117 104.836 865.648 104.836C865.07 104.836 864.594 104.688 864.219 104.391C863.859 104.109 863.68 103.742 863.68 103.289C863.68 102.945 863.789 102.664 864.008 102.445C864.227 102.242 864.5 102.141 864.828 102.141C865.047 102.141 865.273 102.156 865.508 102.188C865.742 102.234 865.977 102.305 866.211 102.398C866.367 102.477 866.5 102.523 866.609 102.539C866.719 102.555 866.812 102.562 866.891 102.562C867.094 102.562 867.32 102.453 867.57 102.234C867.82 102.031 868.047 101.758 868.25 101.414C868.359 101.211 868.477 100.961 868.602 100.664C868.727 100.383 868.844 100.102 868.953 99.8203C869.062 99.5391 869.148 99.2734 869.211 99.0234C869.289 98.7891 869.328 98.625 869.328 98.5312C869.328 98.3125 869.219 97.9688 869 97.5C868.797 97.0156 868.508 96.4453 868.133 95.7891C868.055 95.6797 867.984 95.5625 867.922 95.4375C867.859 95.3125 867.805 95.1641 867.758 94.9922L867.664 94.7812L864.617 88.1953C864.43 87.7422 863.977 87.4531 863.258 87.3281V86.9531H868.766V87.375C868.188 87.4062 867.781 87.4766 867.547 87.5859C867.328 87.6797 867.219 87.8438 867.219 88.0781C867.219 88.25 867.234 88.4219 867.266 88.5938C867.312 88.75 867.391 88.9219 867.5 89.1094L870.57 95.8594L873.148 88.4766C873.242 88.3203 873.289 88.1797 873.289 88.0547C873.289 87.8359 873.172 87.6719 872.938 87.5625C872.703 87.4375 872.383 87.375 871.977 87.375V86.9531H875.586V87.375ZM885.359 99.1875V97.4531C884.906 98.1094 884.406 98.5781 883.859 98.8594C883.328 99.125 882.688 99.2578 881.938 99.2578C881.188 99.2578 880.508 99.125 879.898 98.8594C879.289 98.5781 878.766 98.1875 878.328 97.6875C877.906 97.1719 877.57 96.5625 877.32 95.8594C877.086 95.1562 876.969 94.375 876.969 93.5156C876.969 92.5625 877.117 91.6719 877.414 90.8438C877.711 90.0156 878.109 89.2891 878.609 88.6641C879.109 88.0391 879.695 87.5469 880.367 87.1875C881.055 86.8281 881.781 86.6484 882.547 86.6484C883.094 86.6484 883.57 86.7344 883.977 86.9062C884.383 87.0625 884.844 87.3594 885.359 87.7969V83.6719C885.359 83.125 885.273 82.7578 885.102 82.5703C884.945 82.3828 884.617 82.2891 884.117 82.2891C884.008 82.2891 883.906 82.2969 883.812 82.3125C883.734 82.3125 883.641 82.3203 883.531 82.3359V81.8672C883.953 81.7578 884.336 81.6641 884.68 81.5859C885.023 81.4922 885.344 81.4062 885.641 81.3281C885.953 81.2344 886.25 81.1406 886.531 81.0469C886.828 80.9531 887.141 80.8438 887.469 80.7188L887.609 80.7891V95.9531C887.609 96.5781 887.68 96.9922 887.82 97.1953C887.977 97.3828 888.297 97.4766 888.781 97.4766C888.859 97.4766 888.953 97.4766 889.062 97.4766C889.188 97.4609 889.305 97.4531 889.414 97.4531V97.875L885.477 99.2578L885.359 99.1875ZM885.359 90.0703C885.359 89.7266 885.281 89.3984 885.125 89.0859C884.984 88.7578 884.789 88.4688 884.539 88.2188C884.289 87.9688 883.992 87.7734 883.648 87.6328C883.32 87.4766 882.977 87.3984 882.617 87.3984C882.117 87.3984 881.656 87.5234 881.234 87.7734C880.828 88.0078 880.477 88.3516 880.18 88.8047C879.898 89.2422 879.68 89.7734 879.523 90.3984C879.367 91.0078 879.289 91.6875 879.289 92.4375C879.289 93.2656 879.375 94.0156 879.547 94.6875C879.719 95.3594 879.961 95.9297 880.273 96.3984C880.602 96.8672 880.992 97.2344 881.445 97.5C881.898 97.75 882.406 97.875 882.969 97.875C883.812 97.875 884.469 97.5938 884.938 97.0312C885.219 96.7188 885.359 96.4688 885.359 96.2812V90.0703ZM890.07 87.8906C890.805 87.6875 891.438 87.5 891.969 87.3281C892.516 87.1562 893.109 86.9453 893.75 86.6953L893.961 86.7422V88.875C894.414 88.4531 894.812 88.1016 895.156 87.8203C895.5 87.5391 895.812 87.3203 896.094 87.1641C896.391 86.9922 896.672 86.875 896.938 86.8125C897.219 86.7344 897.516 86.6953 897.828 86.6953C898.812 86.6953 899.586 87.0469 900.148 87.75C900.711 88.4531 900.992 89.4375 900.992 90.7031V96.8438C900.992 97.4844 901.102 97.9219 901.32 98.1562C901.539 98.3906 901.969 98.5469 902.609 98.625V99H897.055V98.625C897.383 98.5938 897.656 98.5391 897.875 98.4609C898.094 98.3828 898.266 98.2578 898.391 98.0859C898.531 97.9141 898.625 97.6875 898.672 97.4062C898.719 97.125 898.742 96.7734 898.742 96.3516V90.75C898.742 89.0312 898.094 88.1719 896.797 88.1719C896.578 88.1719 896.367 88.1953 896.164 88.2422C895.961 88.2891 895.75 88.3672 895.531 88.4766C895.328 88.5859 895.102 88.7422 894.852 88.9453C894.617 89.1484 894.336 89.3984 894.008 89.6953V97.2188C894.008 97.7031 894.133 98.0469 894.383 98.25C894.633 98.4375 895.102 98.5625 895.789 98.625V99H890.117V98.625C890.461 98.5938 890.734 98.5469 890.938 98.4844C891.156 98.4062 891.328 98.2891 891.453 98.1328C891.578 97.9766 891.664 97.7812 891.711 97.5469C891.758 97.2969 891.781 96.9844 891.781 96.6094V89.9531C891.781 89.2969 891.711 88.8516 891.57 88.6172C891.43 88.3672 891.172 88.2422 890.797 88.2422C890.516 88.2422 890.273 88.2812 890.07 88.3594V87.8906ZM914.375 94.8047C913.812 96.2734 913.047 97.3828 912.078 98.1328C911.125 98.8828 910 99.2578 908.703 99.2578C907.938 99.2578 907.242 99.1172 906.617 98.8359C906.008 98.5547 905.484 98.1562 905.047 97.6406C904.609 97.125 904.273 96.5 904.039 95.7656C903.805 95.0312 903.688 94.2031 903.688 93.2812C903.688 92.2969 903.82 91.3984 904.086 90.5859C904.367 89.7734 904.75 89.0781 905.234 88.5C905.734 87.9062 906.328 87.4453 907.016 87.1172C907.703 86.7891 908.461 86.625 909.289 86.625C909.992 86.625 910.633 86.7578 911.211 87.0234C911.805 87.2891 912.305 87.6641 912.711 88.1484C912.883 88.3672 913.023 88.5859 913.133 88.8047C913.258 89.0234 913.359 89.2656 913.438 89.5312C913.531 89.7969 913.609 90.0938 913.672 90.4219C913.734 90.75 913.797 91.125 913.859 91.5469H905.633C905.664 92.4062 905.734 93.1172 905.844 93.6797C905.969 94.2266 906.164 94.7578 906.43 95.2734C907.195 96.7109 908.32 97.4297 909.805 97.4297C910.664 97.4297 911.406 97.2188 912.031 96.7969C912.672 96.375 913.312 95.6562 913.953 94.6406L914.375 94.8047ZM911.141 90.6562C910.969 89.5 910.688 88.7031 910.297 88.2656C909.922 87.8125 909.328 87.5859 908.516 87.5859C907.688 87.5859 907.039 87.8281 906.57 88.3125C906.117 88.7969 905.82 89.5781 905.68 90.6562H911.141ZM927.617 87.375C927.305 87.4062 927.047 87.5078 926.844 87.6797C926.656 87.8516 926.477 88.1484 926.305 88.5703L922.203 99.4922C921.828 100.461 921.469 101.281 921.125 101.953C920.781 102.641 920.43 103.195 920.07 103.617C919.727 104.039 919.359 104.344 918.969 104.531C918.578 104.734 918.148 104.836 917.68 104.836C917.102 104.836 916.625 104.688 916.25 104.391C915.891 104.109 915.711 103.742 915.711 103.289C915.711 102.945 915.82 102.664 916.039 102.445C916.258 102.242 916.531 102.141 916.859 102.141C917.078 102.141 917.305 102.156 917.539 102.188C917.773 102.234 918.008 102.305 918.242 102.398C918.398 102.477 918.531 102.523 918.641 102.539C918.75 102.555 918.844 102.562 918.922 102.562C919.125 102.562 919.352 102.453 919.602 102.234C919.852 102.031 920.078 101.758 920.281 101.414C920.391 101.211 920.508 100.961 920.633 100.664C920.758 100.383 920.875 100.102 920.984 99.8203C921.094 99.5391 921.18 99.2734 921.242 99.0234C921.32 98.7891 921.359 98.625 921.359 98.5312C921.359 98.3125 921.25 97.9688 921.031 97.5C920.828 97.0156 920.539 96.4453 920.164 95.7891C920.086 95.6797 920.016 95.5625 919.953 95.4375C919.891 95.3125 919.836 95.1641 919.789 94.9922L919.695 94.7812L916.648 88.1953C916.461 87.7422 916.008 87.4531 915.289 87.3281V86.9531H920.797V87.375C920.219 87.4062 919.812 87.4766 919.578 87.5859C919.359 87.6797 919.25 87.8438 919.25 88.0781C919.25 88.25 919.266 88.4219 919.297 88.5938C919.344 88.75 919.422 88.9219 919.531 89.1094L922.602 95.8594L925.18 88.4766C925.273 88.3203 925.32 88.1797 925.32 88.0547C925.32 87.8359 925.203 87.6719 924.969 87.5625C924.734 87.4375 924.414 87.375 924.008 87.375V86.9531H927.617V87.375Z" fill="black"/>
<path d="M116.008 232.359L114.695 237H100.328V236.508C100.812 236.477 101.203 236.422 101.5 236.344C101.812 236.266 102.047 236.141 102.203 235.969C102.375 235.797 102.492 235.562 102.555 235.266C102.617 234.969 102.648 234.586 102.648 234.117V222.211C102.648 221.742 102.617 221.359 102.555 221.062C102.508 220.766 102.398 220.531 102.227 220.359C102.055 220.188 101.812 220.062 101.5 219.984C101.203 219.906 100.812 219.852 100.328 219.82V219.281H107.852V219.82C107.32 219.852 106.891 219.906 106.562 219.984C106.234 220.047 105.984 220.172 105.812 220.359C105.641 220.531 105.523 220.766 105.461 221.062C105.398 221.359 105.367 221.742 105.367 222.211V234.867C105.367 235.102 105.391 235.297 105.438 235.453C105.5 235.594 105.617 235.703 105.789 235.781C105.961 235.859 106.195 235.914 106.492 235.945C106.789 235.961 107.188 235.969 107.688 235.969H109.469C110.609 235.969 111.555 235.836 112.305 235.57C113.07 235.305 113.695 234.898 114.18 234.352C114.367 234.133 114.547 233.859 114.719 233.531C114.906 233.203 115.109 232.812 115.328 232.359H116.008ZM123.016 224.695C123.875 224.695 124.664 224.844 125.383 225.141C126.102 225.438 126.719 225.859 127.234 226.406C127.766 226.938 128.18 227.57 128.477 228.305C128.773 229.039 128.922 229.852 128.922 230.742C128.922 231.68 128.766 232.547 128.453 233.344C128.156 234.125 127.742 234.812 127.211 235.406C126.68 235.984 126.047 236.438 125.312 236.766C124.594 237.094 123.812 237.258 122.969 237.258C122.125 237.258 121.344 237.102 120.625 236.789C119.906 236.477 119.289 236.039 118.773 235.477C118.258 234.914 117.852 234.25 117.555 233.484C117.258 232.719 117.109 231.883 117.109 230.977C117.109 230.055 117.25 229.211 117.531 228.445C117.828 227.664 118.234 227 118.75 226.453C119.266 225.891 119.883 225.461 120.602 225.164C121.336 224.852 122.141 224.695 123.016 224.695ZM122.617 225.445C121.68 225.445 120.93 225.828 120.367 226.594C119.805 227.359 119.523 228.375 119.523 229.641C119.523 230.594 119.625 231.523 119.828 232.43C120.031 233.32 120.32 234.117 120.695 234.82C120.977 235.367 121.352 235.789 121.82 236.086C122.289 236.383 122.797 236.531 123.344 236.531C124.328 236.531 125.094 236.102 125.641 235.242C126.203 234.367 126.484 233.172 126.484 231.656C126.484 230.516 126.32 229.453 125.992 228.469C125.664 227.484 125.219 226.742 124.656 226.242C124.359 225.961 124.047 225.758 123.719 225.633C123.391 225.508 123.023 225.445 122.617 225.445ZM130.141 225.891C130.875 225.688 131.508 225.5 132.039 225.328C132.586 225.156 133.18 224.945 133.82 224.695L134.031 224.742V226.875C134.484 226.453 134.883 226.102 135.227 225.82C135.57 225.539 135.883 225.32 136.164 225.164C136.461 224.992 136.742 224.875 137.008 224.812C137.289 224.734 137.586 224.695 137.898 224.695C138.883 224.695 139.656 225.047 140.219 225.75C140.781 226.453 141.062 227.438 141.062 228.703V234.844C141.062 235.484 141.172 235.922 141.391 236.156C141.609 236.391 142.039 236.547 142.68 236.625V237H137.125V236.625C137.453 236.594 137.727 236.539 137.945 236.461C138.164 236.383 138.336 236.258 138.461 236.086C138.602 235.914 138.695 235.688 138.742 235.406C138.789 235.125 138.812 234.773 138.812 234.352V228.75C138.812 227.031 138.164 226.172 136.867 226.172C136.648 226.172 136.438 226.195 136.234 226.242C136.031 226.289 135.82 226.367 135.602 226.477C135.398 226.586 135.172 226.742 134.922 226.945C134.688 227.148 134.406 227.398 134.078 227.695V235.219C134.078 235.703 134.203 236.047 134.453 236.25C134.703 236.438 135.172 236.562 135.859 236.625V237H130.188V236.625C130.531 236.594 130.805 236.547 131.008 236.484C131.227 236.406 131.398 236.289 131.523 236.133C131.648 235.977 131.734 235.781 131.781 235.547C131.828 235.297 131.852 234.984 131.852 234.609V227.953C131.852 227.297 131.781 226.852 131.641 226.617C131.5 226.367 131.242 226.242 130.867 226.242C130.586 226.242 130.344 226.281 130.141 226.359V225.891ZM152.195 237.188V235.453C151.742 236.109 151.242 236.578 150.695 236.859C150.164 237.125 149.523 237.258 148.773 237.258C148.023 237.258 147.344 237.125 146.734 236.859C146.125 236.578 145.602 236.188 145.164 235.688C144.742 235.172 144.406 234.562 144.156 233.859C143.922 233.156 143.805 232.375 143.805 231.516C143.805 230.562 143.953 229.672 144.25 228.844C144.547 228.016 144.945 227.289 145.445 226.664C145.945 226.039 146.531 225.547 147.203 225.188C147.891 224.828 148.617 224.648 149.383 224.648C149.93 224.648 150.406 224.734 150.812 224.906C151.219 225.062 151.68 225.359 152.195 225.797V221.672C152.195 221.125 152.109 220.758 151.938 220.57C151.781 220.383 151.453 220.289 150.953 220.289C150.844 220.289 150.742 220.297 150.648 220.312C150.57 220.312 150.477 220.32 150.367 220.336V219.867C150.789 219.758 151.172 219.664 151.516 219.586C151.859 219.492 152.18 219.406 152.477 219.328C152.789 219.234 153.086 219.141 153.367 219.047C153.664 218.953 153.977 218.844 154.305 218.719L154.445 218.789V233.953C154.445 234.578 154.516 234.992 154.656 235.195C154.812 235.383 155.133 235.477 155.617 235.477C155.695 235.477 155.789 235.477 155.898 235.477C156.023 235.461 156.141 235.453 156.25 235.453V235.875L152.312 237.258L152.195 237.188ZM152.195 228.07C152.195 227.727 152.117 227.398 151.961 227.086C151.82 226.758 151.625 226.469 151.375 226.219C151.125 225.969 150.828 225.773 150.484 225.633C150.156 225.477 149.812 225.398 149.453 225.398C148.953 225.398 148.492 225.523 148.07 225.773C147.664 226.008 147.312 226.352 147.016 226.805C146.734 227.242 146.516 227.773 146.359 228.398C146.203 229.008 146.125 229.688 146.125 230.438C146.125 231.266 146.211 232.016 146.383 232.688C146.555 233.359 146.797 233.93 147.109 234.398C147.438 234.867 147.828 235.234 148.281 235.5C148.734 235.75 149.242 235.875 149.805 235.875C150.648 235.875 151.305 235.594 151.773 235.031C152.055 234.719 152.195 234.469 152.195 234.281V228.07ZM156.672 226.172C157.062 226.031 157.422 225.906 157.75 225.797C158.078 225.672 158.391 225.555 158.688 225.445C159 225.32 159.305 225.203 159.602 225.094C159.914 224.969 160.25 224.836 160.609 224.695L160.773 224.742V227.203C161.102 226.719 161.398 226.32 161.664 226.008C161.93 225.68 162.188 225.422 162.438 225.234C162.688 225.031 162.93 224.891 163.164 224.812C163.414 224.734 163.68 224.695 163.961 224.695C164.414 224.695 164.773 224.828 165.039 225.094C165.305 225.344 165.438 225.68 165.438 226.102C165.438 226.492 165.344 226.797 165.156 227.016C164.969 227.219 164.719 227.32 164.406 227.32C164.234 227.32 164.062 227.289 163.891 227.227C163.734 227.148 163.547 227 163.328 226.781C163.188 226.656 163.055 226.562 162.93 226.5C162.805 226.438 162.703 226.406 162.625 226.406C162.438 226.406 162.234 226.484 162.016 226.641C161.812 226.781 161.617 226.961 161.43 227.18C161.242 227.398 161.086 227.633 160.961 227.883C160.836 228.133 160.773 228.367 160.773 228.586V234.609C160.773 234.984 160.805 235.297 160.867 235.547C160.93 235.797 161.047 236 161.219 236.156C161.391 236.297 161.625 236.406 161.922 236.484C162.219 236.562 162.594 236.609 163.047 236.625V237H156.602V236.625C157.023 236.547 157.359 236.469 157.609 236.391C157.875 236.297 158.07 236.188 158.195 236.062C158.336 235.938 158.422 235.773 158.453 235.57C158.5 235.352 158.523 235.078 158.523 234.75V228.07C158.523 227.477 158.453 227.062 158.312 226.828C158.172 226.578 157.938 226.453 157.609 226.453C157.438 226.453 157.281 226.461 157.141 226.477C157.016 226.492 156.859 226.523 156.672 226.57V226.172ZM176.758 232.805C176.195 234.273 175.43 235.383 174.461 236.133C173.508 236.883 172.383 237.258 171.086 237.258C170.32 237.258 169.625 237.117 169 236.836C168.391 236.555 167.867 236.156 167.43 235.641C166.992 235.125 166.656 234.5 166.422 233.766C166.188 233.031 166.07 232.203 166.07 231.281C166.07 230.297 166.203 229.398 166.469 228.586C166.75 227.773 167.133 227.078 167.617 226.5C168.117 225.906 168.711 225.445 169.398 225.117C170.086 224.789 170.844 224.625 171.672 224.625C172.375 224.625 173.016 224.758 173.594 225.023C174.188 225.289 174.688 225.664 175.094 226.148C175.266 226.367 175.406 226.586 175.516 226.805C175.641 227.023 175.742 227.266 175.82 227.531C175.914 227.797 175.992 228.094 176.055 228.422C176.117 228.75 176.18 229.125 176.242 229.547H168.016C168.047 230.406 168.117 231.117 168.227 231.68C168.352 232.227 168.547 232.758 168.812 233.273C169.578 234.711 170.703 235.43 172.188 235.43C173.047 235.43 173.789 235.219 174.414 234.797C175.055 234.375 175.695 233.656 176.336 232.641L176.758 232.805ZM173.523 228.656C173.352 227.5 173.07 226.703 172.68 226.266C172.305 225.812 171.711 225.586 170.898 225.586C170.07 225.586 169.422 225.828 168.953 226.312C168.5 226.797 168.203 227.578 168.062 228.656H173.523ZM185.289 228.609C184.992 227.406 184.625 226.555 184.188 226.055C183.75 225.555 183.148 225.305 182.383 225.305C181.758 225.305 181.258 225.477 180.883 225.82C180.508 226.148 180.32 226.586 180.32 227.133C180.32 227.898 180.703 228.508 181.469 228.961L184.352 230.672C185.164 231.156 185.742 231.641 186.086 232.125C186.43 232.594 186.602 233.164 186.602 233.836C186.602 234.305 186.5 234.75 186.297 235.172C186.094 235.594 185.82 235.961 185.477 236.273C185.148 236.57 184.758 236.812 184.305 237C183.852 237.172 183.367 237.258 182.852 237.258C182.57 237.258 182.266 237.234 181.938 237.188C181.609 237.156 181.25 237.094 180.859 237C180.547 236.922 180.305 236.867 180.133 236.836C179.961 236.805 179.797 236.789 179.641 236.789C179.484 236.789 179.367 236.812 179.289 236.859C179.211 236.906 179.125 236.992 179.031 237.117H178.68V232.945H179.102C179.258 233.633 179.438 234.211 179.641 234.68C179.844 235.148 180.078 235.531 180.344 235.828C180.609 236.125 180.922 236.344 181.281 236.484C181.641 236.609 182.047 236.672 182.5 236.672C183.203 236.672 183.75 236.5 184.141 236.156C184.547 235.812 184.75 235.344 184.75 234.75C184.75 233.953 184.281 233.289 183.344 232.758L181.797 231.867C181.219 231.539 180.727 231.227 180.32 230.93C179.93 230.633 179.609 230.336 179.359 230.039C179.109 229.727 178.93 229.406 178.82 229.078C178.711 228.75 178.656 228.398 178.656 228.023C178.656 227.539 178.742 227.094 178.914 226.688C179.102 226.281 179.352 225.93 179.664 225.633C179.992 225.336 180.383 225.109 180.836 224.953C181.289 224.797 181.789 224.719 182.336 224.719C182.961 224.719 183.562 224.828 184.141 225.047C184.469 225.188 184.719 225.258 184.891 225.258C184.953 225.258 185 225.242 185.031 225.211C185.062 225.18 185.141 225.109 185.266 225L185.289 224.953H185.617L185.711 228.609H185.289Z" fill="black"/>
<path d="M433.414 298.117C433.414 298.602 433.445 299 433.508 299.312C433.57 299.609 433.688 299.844 433.859 300.016C434.047 300.188 434.305 300.312 434.633 300.391C434.961 300.453 435.391 300.492 435.922 300.508V301H428.422V300.508C428.938 300.461 429.336 300.398 429.617 300.32C429.914 300.242 430.141 300.109 430.297 299.922C430.453 299.734 430.547 299.477 430.578 299.148C430.625 298.805 430.648 298.352 430.648 297.789V286.211C430.648 285.727 430.625 285.344 430.578 285.062C430.531 284.766 430.43 284.539 430.273 284.383C430.117 284.211 429.891 284.086 429.594 284.008C429.297 283.93 428.906 283.867 428.422 283.82V283.281H435.477C436.805 283.281 438 283.469 439.062 283.844C440.141 284.219 440.953 284.711 441.5 285.32C442.172 286.117 442.508 287.055 442.508 288.133C442.508 289.023 442.273 289.852 441.805 290.617C441.352 291.367 440.727 291.961 439.93 292.398C439.352 292.711 438.688 292.938 437.938 293.078C437.203 293.219 436.305 293.289 435.242 293.289C434.898 293.289 434.594 293.289 434.328 293.289C434.078 293.273 433.773 293.258 433.414 293.242V298.117ZM433.414 292.141C433.727 292.172 433.984 292.195 434.188 292.211C434.406 292.227 434.648 292.234 434.914 292.234C438.023 292.234 439.578 290.922 439.578 288.297C439.578 286.906 439.148 285.891 438.289 285.25C437.445 284.609 436.109 284.289 434.281 284.289C433.922 284.289 433.688 284.352 433.578 284.477C433.469 284.586 433.414 284.828 433.414 285.203V292.141ZM452.727 298.188C452.727 298.781 452.781 299.195 452.891 299.43C453 299.648 453.211 299.758 453.523 299.758C453.883 299.758 454.273 299.594 454.695 299.266V299.945C454.242 300.445 453.844 300.789 453.5 300.977C453.156 301.164 452.758 301.258 452.305 301.258C451.758 301.258 451.352 301.109 451.086 300.812C450.836 300.5 450.68 299.984 450.617 299.266C449.805 299.969 449.094 300.477 448.484 300.789C447.875 301.102 447.281 301.258 446.703 301.258C445.859 301.258 445.172 300.992 444.641 300.461C444.125 299.93 443.867 299.242 443.867 298.398C443.867 297.977 443.945 297.555 444.102 297.133C444.273 296.695 444.516 296.344 444.828 296.078C445.109 295.828 445.367 295.617 445.602 295.445C445.852 295.258 446.172 295.07 446.562 294.883C446.953 294.68 447.461 294.453 448.086 294.203C448.711 293.953 449.539 293.617 450.57 293.195V291.484C450.57 290.75 450.391 290.195 450.031 289.82C449.688 289.445 449.188 289.258 448.531 289.258C447.984 289.258 447.523 289.391 447.148 289.656C446.789 289.906 446.609 290.211 446.609 290.57C446.609 290.711 446.625 290.891 446.656 291.109C446.703 291.328 446.727 291.508 446.727 291.648C446.727 291.961 446.602 292.227 446.352 292.445C446.117 292.664 445.844 292.773 445.531 292.773C445.219 292.773 444.945 292.664 444.711 292.445C444.492 292.211 444.383 291.938 444.383 291.625C444.383 291.281 444.477 290.93 444.664 290.57C444.867 290.211 445.141 289.891 445.484 289.609C445.844 289.297 446.32 289.055 446.914 288.883C447.523 288.711 448.18 288.625 448.883 288.625C449.695 288.625 450.375 288.766 450.922 289.047C451.484 289.312 451.914 289.688 452.211 290.172C452.398 290.484 452.531 290.852 452.609 291.273C452.688 291.68 452.727 292.234 452.727 292.938V298.188ZM450.57 293.852C449.758 294.148 449.062 294.438 448.484 294.719C447.922 294.984 447.461 295.266 447.102 295.562C446.758 295.844 446.508 296.148 446.352 296.477C446.195 296.805 446.117 297.164 446.117 297.555V297.672C446.117 297.953 446.164 298.227 446.258 298.492C446.352 298.742 446.477 298.961 446.633 299.148C446.805 299.336 447 299.484 447.219 299.594C447.438 299.703 447.664 299.758 447.898 299.758C448.18 299.758 448.492 299.703 448.836 299.594C449.195 299.469 449.531 299.32 449.844 299.148C450.156 298.977 450.352 298.797 450.43 298.609C450.523 298.422 450.57 298.125 450.57 297.719V293.852ZM454.953 290.172C455.344 290.031 455.703 289.906 456.031 289.797C456.359 289.672 456.672 289.555 456.969 289.445C457.281 289.32 457.586 289.203 457.883 289.094C458.195 288.969 458.531 288.836 458.891 288.695L459.055 288.742V291.203C459.383 290.719 459.68 290.32 459.945 290.008C460.211 289.68 460.469 289.422 460.719 289.234C460.969 289.031 461.211 288.891 461.445 288.812C461.695 288.734 461.961 288.695 462.242 288.695C462.695 288.695 463.055 288.828 463.32 289.094C463.586 289.344 463.719 289.68 463.719 290.102C463.719 290.492 463.625 290.797 463.438 291.016C463.25 291.219 463 291.32 462.688 291.32C462.516 291.32 462.344 291.289 462.172 291.227C462.016 291.148 461.828 291 461.609 290.781C461.469 290.656 461.336 290.562 461.211 290.5C461.086 290.438 460.984 290.406 460.906 290.406C460.719 290.406 460.516 290.484 460.297 290.641C460.094 290.781 459.898 290.961 459.711 291.18C459.523 291.398 459.367 291.633 459.242 291.883C459.117 292.133 459.055 292.367 459.055 292.586V298.609C459.055 298.984 459.086 299.297 459.148 299.547C459.211 299.797 459.328 300 459.5 300.156C459.672 300.297 459.906 300.406 460.203 300.484C460.5 300.562 460.875 300.609 461.328 300.625V301H454.883V300.625C455.305 300.547 455.641 300.469 455.891 300.391C456.156 300.297 456.352 300.188 456.477 300.062C456.617 299.938 456.703 299.773 456.734 299.57C456.781 299.352 456.805 299.078 456.805 298.75V292.07C456.805 291.477 456.734 291.062 456.594 290.828C456.453 290.578 456.219 290.453 455.891 290.453C455.719 290.453 455.562 290.461 455.422 290.477C455.297 290.492 455.141 290.523 454.953 290.57V290.172ZM468.477 288.766V298.281C468.477 298.766 468.492 299.156 468.523 299.453C468.57 299.734 468.664 299.961 468.805 300.133C468.945 300.289 469.141 300.398 469.391 300.461C469.656 300.523 470.016 300.578 470.469 300.625V301H464.117V300.625C464.586 300.594 464.953 300.547 465.219 300.484C465.5 300.406 465.711 300.289 465.852 300.133C466.008 299.961 466.109 299.734 466.156 299.453C466.203 299.156 466.227 298.766 466.227 298.281V292.07C466.227 291.477 466.156 291.062 466.016 290.828C465.891 290.578 465.672 290.453 465.359 290.453C465.234 290.453 465.086 290.461 464.914 290.477C464.758 290.492 464.594 290.516 464.422 290.547L464.234 290.57V290.172L468.359 288.695L468.477 288.766ZM465.43 287.453L469.391 283.492C469.625 283.258 469.812 283.094 469.953 283C470.109 282.906 470.297 282.859 470.516 282.859C471.141 282.859 471.453 283.148 471.453 283.727C471.453 284.133 471.18 284.508 470.633 284.852L466.531 287.453H465.43ZM479.141 292.609C478.844 291.406 478.477 290.555 478.039 290.055C477.602 289.555 477 289.305 476.234 289.305C475.609 289.305 475.109 289.477 474.734 289.82C474.359 290.148 474.172 290.586 474.172 291.133C474.172 291.898 474.555 292.508 475.32 292.961L478.203 294.672C479.016 295.156 479.594 295.641 479.938 296.125C480.281 296.594 480.453 297.164 480.453 297.836C480.453 298.305 480.352 298.75 480.148 299.172C479.945 299.594 479.672 299.961 479.328 300.273C479 300.57 478.609 300.812 478.156 301C477.703 301.172 477.219 301.258 476.703 301.258C476.422 301.258 476.117 301.234 475.789 301.188C475.461 301.156 475.102 301.094 474.711 301C474.398 300.922 474.156 300.867 473.984 300.836C473.812 300.805 473.648 300.789 473.492 300.789C473.336 300.789 473.219 300.812 473.141 300.859C473.062 300.906 472.977 300.992 472.883 301.117H472.531V296.945H472.953C473.109 297.633 473.289 298.211 473.492 298.68C473.695 299.148 473.93 299.531 474.195 299.828C474.461 300.125 474.773 300.344 475.133 300.484C475.492 300.609 475.898 300.672 476.352 300.672C477.055 300.672 477.602 300.5 477.992 300.156C478.398 299.812 478.602 299.344 478.602 298.75C478.602 297.953 478.133 297.289 477.195 296.758L475.648 295.867C475.07 295.539 474.578 295.227 474.172 294.93C473.781 294.633 473.461 294.336 473.211 294.039C472.961 293.727 472.781 293.406 472.672 293.078C472.562 292.75 472.508 292.398 472.508 292.023C472.508 291.539 472.594 291.094 472.766 290.688C472.953 290.281 473.203 289.93 473.516 289.633C473.844 289.336 474.234 289.109 474.688 288.953C475.141 288.797 475.641 288.719 476.188 288.719C476.812 288.719 477.414 288.828 477.992 289.047C478.32 289.188 478.57 289.258 478.742 289.258C478.805 289.258 478.852 289.242 478.883 289.211C478.914 289.18 478.992 289.109 479.117 289L479.141 288.953H479.469L479.562 292.609H479.141Z" fill="black"/>
</svg>
